STARTFONT 2.1
FONT -FontForge-Helvetica-Bold-R-Normal--44-720-44-44-P-237-ISO10646-1
SIZE 72 44 44
FONTBOUNDINGBOX 44 52 -2 -10
COMMENT "Generated by fontforge, http://fontforge.sourceforge.net"
COMMENT "(c) 1990-2006 Apple Computer Inc. (c) 1981 Linotype AG (c) 1990-91 Type Solutions Inc."
STARTPROPERTIES 41
FOUNDRY "FontForge"
FAMILY_NAME "Helvetica"
WEIGHT_NAME "Bold"
SLANT "R"
SETWIDTH_NAME "Normal"
ADD_STYLE_NAME ""
PIXEL_SIZE 44
POINT_SIZE 720
RESOLUTION_X 44
RESOLUTION_Y 44
SPACING "P"
AVERAGE_WIDTH 237
CHARSET_REGISTRY "ISO10646"
CHARSET_ENCODING "1"
FONTNAME_REGISTRY ""
CHARSET_COLLECTIONS "ISO10646-1"
FONT_NAME "Helvetica-Bold"
FACE_NAME "Helvetica Bold"
COPYRIGHT "(c) 1990-2006 Apple Computer Inc. (c) 1981 Linotype AG (c) 1990-91 Type Solutions Inc."
FONT_VERSION "8.0d3e1"
FONT_ASCENT 35
FONT_DESCENT 9
UNDERLINE_POSITION -4
UNDERLINE_THICKNESS 3
X_HEIGHT 23
CAP_HEIGHT 31
DEFAULT_CHAR 3
RAW_ASCENT 799
RAW_DESCENT 200
NORM_SPACE 12
RELATIVE_WEIGHT 70
RELATIVE_SETWIDTH 50
SUPERSCRIPT_X 0
SUPERSCRIPT_Y 20
SUPERSCRIPT_SIZE 28
SUBSCRIPT_X 0
SUBSCRIPT_Y 6
SUBSCRIPT_SIZE 28
FIGURE_WIDTH 24
AVG_LOWERCASE_WIDTH 243
AVG_UPPERCASE_WIDTH 301
ENDPROPERTIES
CHARS 237
STARTCHAR uni0008.dup1
ENCODING 0
SWIDTH 0 0
DWIDTH 0 0
BBX 1 1 0 0
BITMAP
00
ENDCHAR
STARTCHAR uni0008
ENCODING 8
SWIDTH 0 0
DWIDTH 0 0
BBX 1 1 0 0
BITMAP
00
ENDCHAR
STARTCHAR uni0009
ENCODING 9
SWIDTH 277 0
DWIDTH 12 0
BBX 1 1 0 0
BITMAP
00
ENDCHAR
STARTCHAR uni0009.dup2
ENCODING 10
SWIDTH 277 0
DWIDTH 12 0
BBX 1 1 0 0
BITMAP
00
ENDCHAR
STARTCHAR uni0009.dup3
ENCODING 13
SWIDTH 277 0
DWIDTH 12 0
BBX 1 1 0 0
BITMAP
00
ENDCHAR
STARTCHAR uni0008.dup4
ENCODING 29
SWIDTH 0 0
DWIDTH 0 0
BBX 1 1 0 0
BITMAP
00
ENDCHAR
STARTCHAR space
ENCODING 32
SWIDTH 277 0
DWIDTH 12 0
BBX 1 1 0 0
BITMAP
00
ENDCHAR
STARTCHAR exclam
ENCODING 33
SWIDTH 333 0
DWIDTH 15 0
BBX 6 32 5 0
BITMAP
FC
FC
FC
FC
FC
FC
FC
FC
FC
FC
FC
FC
FC
78
78
78
78
78
78
78
78
78
78
00
00
00
FC
FC
FC
FC
FC
FC
ENDCHAR
STARTCHAR quotedbl
ENCODING 34
SWIDTH 474 0
DWIDTH 21 0
BBX 14 13 4 19
BITMAP
FCFC
FCFC
FCFC
FCFC
FCFC
FCFC
787C
7878
7878
7878
7878
7878
7878
ENDCHAR
STARTCHAR numbersign
ENCODING 35
SWIDTH 556 0
DWIDTH 24 0
BBX 24 31 0 0
BITMAP
003C3C
003C3C
007878
007878
007878
007878
00F0F0
00F0F0
00F0F0
1FFFFF
1FFFFF
1FFFFE
3FFFFE
03E1E0
03C3C0
03C3C0
03C3C0
0787C0
7FFFFC
7FFFF8
FFFFF8
FFFFF8
0F0F00
0F0F00
0F0F00
1E1E00
1E1E00
1E1E00
1E1E00
3C3C00
3C3C00
ENDCHAR
STARTCHAR dollar
ENCODING 36
SWIDTH 556 0
DWIDTH 24 0
BBX 21 36 2 -3
BITMAP
006000
03FC00
0FFF00
1FFFC0
3FFFE0
7FFFE0
7FFFF0
FE67F0
FC63F8
FC61F8
FC61F8
FC6000
FE6000
FF6000
7FF000
3FFE00
1FFF80
07FFE0
00FFF0
007FF0
0067F8
0063F8
FC61F8
FC61F8
FC61F8
FE63F8
FF67F0
7FFFF0
7FFFF0
3FFFE0
1FFFC0
0FFF00
03FC00
006000
006000
006000
ENDCHAR
STARTCHAR percent
ENCODING 37
SWIDTH 889 0
DWIDTH 39 0
BBX 36 32 1 0
BITMAP
07C0007000
1FF000E000
3FF800E000
7FFC01C000
7FFC03C000
FFFE038000
F83E078000
F01E070000
F01E0F0000
F01E0E0000
F83E1E0000
FFFE1C0000
7FFC3C0000
7FFC380000
3FF8700000
1FF0700000
07C0E00000
0001E03E00
0001C0FF80
0003C1FFC0
000383FFE0
000783FFE0
000707FFF0
000F07C1F0
000E0780F0
001E07C1F0
001C07FFF0
003803FFE0
003803FFE0
007001FFC0
00F000FF80
00E0003E00
ENDCHAR
STARTCHAR ampersand
ENCODING 38
SWIDTH 722 0
DWIDTH 32 0
BBX 29 33 2 0
BITMAP
007F0000
01FFC000
03FFE000
07FFF000
07FFF000
0FFFF800
0FE3F800
0FC1F800
0FC1F800
0FC1F800
0FE3F800
07F7F000
07FFF000
03FFC000
01FF8000
07FE0000
0FFF07E0
1FFF87E0
3FDFC7E0
7F1FE7C0
FE0FFFC0
FC07FFC0
FC03FF80
FC01FF00
FC00FF00
FE01FF00
7F83FF80
7FFFFF80
3FFFFFC0
3FFFFFE0
1FFFCFE0
07FF87F0
01FC03F8
ENDCHAR
STARTCHAR quotesingle
ENCODING 39
SWIDTH 237 0
DWIDTH 10 0
BBX 5 13 2 19
BITMAP
F8
F8
F8
F8
F8
F8
F8
70
70
70
70
70
70
ENDCHAR
STARTCHAR parenleft
ENCODING 40
SWIDTH 333 0
DWIDTH 15 0
BBX 12 41 2 -9
BITMAP
01F0
03E0
07C0
07C0
0F80
0F80
1F80
1F00
3F00
3E00
3E00
7E00
7E00
7E00
7C00
FC00
FC00
FC00
FC00
FC00
FC00
FC00
FC00
FC00
FC00
FC00
7C00
7E00
7E00
7E00
3E00
3E00
3F00
1F00
1F80
0F80
0F80
07C0
07C0
03E0
01F0
ENDCHAR
STARTCHAR parenright
ENCODING 41
SWIDTH 333 0
DWIDTH 15 0
BBX 12 41 0 -9
BITMAP
7800
7C00
3C00
3E00
1F00
1F00
1F80
0F80
0FC0
0FC0
07C0
07E0
07E0
07E0
03E0
03F0
03F0
03F0
03F0
03F0
03F0
03F0
03F0
03F0
03F0
03F0
03E0
07E0
07E0
07E0
07C0
0FC0
0FC0
0F80
1F80
1F00
3F00
3E00
7E00
7C00
F800
ENDCHAR
STARTCHAR asterisk
ENCODING 42
SWIDTH 389 0
DWIDTH 17 0
BBX 13 15 2 17
BITMAP
0700
0700
0700
0700
E738
FFF8
FFF8
7FF0
0F80
1FC0
1FC0
3DE0
78F0
38E0
1040
ENDCHAR
STARTCHAR plus
ENCODING 43
SWIDTH 583 0
DWIDTH 26 0
BBX 22 23 2 0
BITMAP
00FC00
00FC00
00FC00
00FC00
00FC00
00FC00
00FC00
00FC00
FFFFFC
FFFFFC
FFFFFC
FFFFFC
FFFFFC
FFFFFC
00FC00
00FC00
00FC00
00FC00
00FC00
00FC00
00FC00
00FC00
00FC00
ENDCHAR
STARTCHAR comma
ENCODING 44
SWIDTH 277 0
DWIDTH 12 0
BBX 6 13 3 -7
BITMAP
FC
FC
FC
FC
FC
FC
1C
1C
1C
38
70
E0
C0
ENDCHAR
STARTCHAR hyphen
ENCODING 45
SWIDTH 333 0
DWIDTH 15 0
BBX 12 6 1 9
BITMAP
FFF0
FFF0
FFF0
FFF0
FFF0
FFF0
ENDCHAR
STARTCHAR period
ENCODING 46
SWIDTH 277 0
DWIDTH 12 0
BBX 6 6 3 0
BITMAP
FC
FC
FC
FC
FC
FC
ENDCHAR
STARTCHAR slash
ENCODING 47
SWIDTH 277 0
DWIDTH 12 0
BBX 17 33 -2 0
BITMAP
000F80
001F00
001F00
001F00
003E00
003E00
007E00
007C00
007C00
00F800
00F800
00F800
01F000
01F000
03F000
03E000
03E000
07C000
07C000
07C000
0F8000
0F8000
1F8000
1F0000
1F0000
3E0000
3E0000
3E0000
7C0000
7C0000
7C0000
F80000
F80000
ENDCHAR
STARTCHAR zero
ENCODING 48
SWIDTH 556 0
DWIDTH 24 0
BBX 22 32 1 0
BITMAP
01FE00
07FF80
0FFFC0
1FFFE0
3FFFF0
3FFFF0
7F87F8
7F03F8
7E01F8
7E01F8
FC00FC
FC00FC
FC00FC
FC00FC
FC00FC
FC00FC
FC00FC
FC00FC
FC00FC
FC00FC
FC00FC
FC00FC
7E01F8
7E01F8
7F03F8
7F87F8
3FFFF0
3FFFF0
1FFFE0
0FFFC0
07FF80
01FE00
ENDCHAR
STARTCHAR one
ENCODING 49
SWIDTH 556 0
DWIDTH 24 0
BBX 13 30 3 0
BITMAP
00F8
00F8
01F8
03F8
0FF8
FFF8
FFF8
FFF8
FFF8
01F8
01F8
01F8
01F8
01F8
01F8
01F8
01F8
01F8
01F8
01F8
01F8
01F8
01F8
01F8
01F8
01F8
01F8
01F8
01F8
01F8
ENDCHAR
STARTCHAR two
ENCODING 50
SWIDTH 556 0
DWIDTH 24 0
BBX 21 32 1 0
BITMAP
01FC00
07FF00
0FFFC0
1FFFE0
3FFFE0
3FFFF0
3F87F0
7F03F8
7E01F8
7E01F8
7E01F8
0001F8
0001F8
0003F8
0007F0
000FF0
001FE0
003FC0
007F80
01FF00
03FE00
07F800
0FF000
1FE000
3F8000
3F8000
7FFFF8
7FFFF8
FFFFF8
FFFFF8
FFFFF8
FFFFF8
ENDCHAR
STARTCHAR three
ENCODING 51
SWIDTH 556 0
DWIDTH 24 0
BBX 21 32 1 0
BITMAP
01FC00
0FFF00
1FFF80
3FFFC0
7FFFE0
7FFFE0
7F0FF0
FE07F0
FC03F0
FC03F0
0003F0
0003F0
0007E0
000FE0
00FFC0
00FF80
00FFE0
00FFF0
0007F0
0003F8
0001F8
0001F8
FC01F8
FC01F8
FE03F8
7F07F0
7FFFF0
7FFFE0
3FFFE0
1FFFC0
0FFF80
01FC00
ENDCHAR
STARTCHAR four
ENCODING 52
SWIDTH 556 0
DWIDTH 24 0
BBX 21 31 2 0
BITMAP
001FC0
003FC0
003FC0
007FC0
007FC0
00EFC0
01EFC0
01CFC0
03CFC0
038FC0
078FC0
0F0FC0
0E0FC0
1E0FC0
1C0FC0
3C0FC0
780FC0
700FC0
FFFFF8
FFFFF8
FFFFF8
FFFFF8
FFFFF8
FFFFF8
000FC0
000FC0
000FC0
000FC0
000FC0
000FC0
000FC0
ENDCHAR
STARTCHAR five
ENCODING 53
SWIDTH 556 0
DWIDTH 24 0
BBX 21 32 1 0
BITMAP
1FFFF0
1FFFF0
1FFFF0
1FFFF0
3FFFF0
3FFFF0
3E0000
3E0000
3E0000
3E0000
3C0000
7C7C00
7DFF80
7FFFC0
7FFFE0
7FFFF0
7FFFF0
0007F0
0003F8
0001F8
0001F8
0001F8
0001F8
FC01F8
FE03F8
FF07F0
7FFFF0
7FFFE0
3FFFE0
1FFFC0
0FFF00
01FC00
ENDCHAR
STARTCHAR six
ENCODING 54
SWIDTH 556 0
DWIDTH 24 0
BBX 22 32 1 0
BITMAP
00FE00
03FF80
07FFE0
0FFFF0
1FFFF0
3FFFF8
3F83F8
7F01F8
7E0000
7E0000
7C0000
FC7F00
FCFFC0
FFFFE0
FFFFF0
FFFFF8
FFFFF8
FF87F8
FE01FC
FC00FC
FC00FC
FC00FC
FC00FC
7C00FC
7E01FC
7F83F8
3FFFF8
3FFFF0
1FFFF0
0FFFE0
07FF80
00FE00
ENDCHAR
STARTCHAR seven
ENCODING 55
SWIDTH 556 0
DWIDTH 24 0
BBX 21 31 2 0
BITMAP
FFFFF8
FFFFF8
FFFFF8
FFFFF8
FFFFF8
FFFFF8
0003F0
0007E0
0007C0
000FC0
001F80
001F00
003F00
007E00
007E00
00FC00
00FC00
01F800
01F800
03F000
03F000
03F000
07E000
07E000
07E000
07E000
0FE000
0FC000
0FC000
0FC000
0FC000
ENDCHAR
STARTCHAR eight
ENCODING 56
SWIDTH 556 0
DWIDTH 24 0
BBX 22 32 1 0
BITMAP
01FE00
07FF80
0FFFC0
1FFFE0
3FFFF0
3FFFF0
7F87F8
7E01F8
7E01F8
7E01F8
7E01F8
3F87F0
3FFFF0
1FFFE0
07FFC0
1FFFE0
3FFFF0
7FFFF8
7F03F8
FE01FC
FC00FC
FC00FC
FC00FC
FC00FC
FE01FC
FF03F8
7FFFF8
7FFFF0
3FFFF0
1FFFE0
0FFF80
01FE00
ENDCHAR
STARTCHAR nine
ENCODING 57
SWIDTH 556 0
DWIDTH 24 0
BBX 22 32 1 0
BITMAP
01FC00
07FF80
0FFFC0
1FFFE0
3FFFF0
7FFFF0
7F87F8
7E01F8
FC01F8
FC00F8
FC00FC
FC00FC
FC00FC
FC00FC
FE01FC
7F07FC
7FFFFC
7FFFFC
3FFFFC
1FFFFC
0FFEFC
01F8F8
0000F8
0001F8
7E03F8
7F07F0
7FFFF0
3FFFE0
3FFFC0
1FFFC0
07FF00
01FC00
ENDCHAR
STARTCHAR colon
ENCODING 58
SWIDTH 333 0
DWIDTH 15 0
BBX 6 22 5 0
BITMAP
FC
FC
FC
FC
FC
FC
00
00
00
00
00
00
00
00
00
00
FC
FC
FC
FC
FC
FC
ENDCHAR
STARTCHAR semicolon
ENCODING 59
SWIDTH 333 0
DWIDTH 15 0
BBX 6 29 5 -7
BITMAP
FC
FC
FC
FC
FC
FC
00
00
00
00
00
00
00
00
00
00
FC
FC
FC
FC
FC
FC
1C
1C
1C
38
70
E0
C0
ENDCHAR
STARTCHAR less
ENCODING 60
SWIDTH 583 0
DWIDTH 26 0
BBX 25 24 1 0
BITMAP
00000180
00000780
00003F80
0001FF80
0007FF80
003FFF80
01FFFE00
0FFFF000
3FFF8000
FFFC0000
FFE00000
FF000000
FF000000
FFE00000
FFFC0000
3FFF8000
0FFFF000
01FFFE00
003FFF80
0007FF80
0001FF80
00003F80
00000780
00000180
ENDCHAR
STARTCHAR equal
ENCODING 61
SWIDTH 583 0
DWIDTH 26 0
BBX 23 16 2 4
BITMAP
FFFFFE
FFFFFE
FFFFFE
FFFFFE
FFFFFE
FFFFFE
000000
000000
000000
000000
FFFFFE
FFFFFE
FFFFFE
FFFFFE
FFFFFE
FFFFFE
ENDCHAR
STARTCHAR greater
ENCODING 62
SWIDTH 583 0
DWIDTH 26 0
BBX 25 24 1 0
BITMAP
80000000
F0000000
FC000000
FF800000
FFF00000
FFFC0000
3FFF8000
0FFFF000
01FFFC00
003FFF80
0007FF80
0000FF80
0000FF80
0007FF80
003FFF80
01FFFE00
0FFFF000
3FFF8000
FFFC0000
FFF00000
FF800000
FC000000
F0000000
80000000
ENDCHAR
STARTCHAR question
ENCODING 63
SWIDTH 610 0
DWIDTH 27 0
BBX 21 32 3 0
BITMAP
03FC00
0FFF00
1FFFC0
3FFFE0
7FFFF0
7FFFF0
7F07F8
FE03F8
FC01F8
FC01F8
0001F8
0001F8
0003F8
0007F0
000FF0
003FE0
007FC0
00FF80
00FE00
01FC00
01F800
01F800
01F800
000000
000000
000000
01F800
01F800
01F800
01F800
01F800
01F800
ENDCHAR
STARTCHAR at
ENCODING 64
SWIDTH 975 0
DWIDTH 43 0
BBX 35 33 4 0
BITMAP
0003FE0000
001FFFE000
007FFFF000
01FE01FC00
03F0003E00
07C0000F00
0F00000780
1E00000380
1C01F001C0
3C07FDF1C0
380FFDE0E0
701F8FE0E0
701F07E0E0
F03E07C0E0
E03C07C0E0
E07C07C0E0
E07C0780E0
E0780780E0
E0780F81C0
E0780F81C0
E0781F0380
E0781F0780
703C3F8F00
703FF7FE00
381FE3FC00
3C0F81F000
1E00000000
0F00000300
07C0001F00
03F801FE00
01FFFFF800
007FFFE000
0007FE0000
ENDCHAR
STARTCHAR A
ENCODING 65
SWIDTH 722 0
DWIDTH 32 0
BBX 30 32 1 0
BITMAP
001FE000
001FE000
001FF000
003FF000
003FF000
007FF800
007FF800
007FFC00
00FFFC00
00FCFC00
00FCFE00
01FCFE00
01F87E00
01F87F00
03F87F00
03F03F00
03F03F80
07F03F80
07F01F80
07E01FC0
0FFFFFC0
0FFFFFC0
1FFFFFE0
1FFFFFE0
1FFFFFE0
3FFFFFF0
3F8007F0
3F8007F8
7F0003F8
7F0003F8
7F0003FC
FE0001FC
ENDCHAR
STARTCHAR B
ENCODING 66
SWIDTH 722 0
DWIDTH 32 0
BBX 26 32 3 0
BITMAP
FFFFE000
FFFFF800
FFFFFE00
FFFFFF00
FFFFFF00
FFFFFF80
FC007F80
FC001F80
FC001F80
FC001F80
FC001F80
FC007F00
FFFFFF00
FFFFFE00
FFFFFC00
FFFFFE00
FFFFFF00
FFFFFF80
FC003F80
FC001FC0
FC000FC0
FC000FC0
FC000FC0
FC000FC0
FC001FC0
FC003F80
FFFFFF80
FFFFFF80
FFFFFF00
FFFFFE00
FFFFF800
FFFFE000
ENDCHAR
STARTCHAR C
ENCODING 67
SWIDTH 722 0
DWIDTH 32 0
BBX 27 32 2 0
BITMAP
003FC000
01FFF800
07FFFC00
0FFFFF00
1FFFFF80
1FFFFF80
3FE07FC0
3F801FE0
7F000FE0
7F000FE0
7E0007E0
FE000000
FC000000
FC000000
FC000000
FC000000
FC000000
FC000000
FC000000
FC000000
FE000000
7E0007E0
7E000FE0
7F000FE0
7F801FC0
3FE07FC0
1FFFFF80
1FFFFF00
0FFFFE00
07FFFC00
01FFF800
003FC000
ENDCHAR
STARTCHAR D
ENCODING 68
SWIDTH 722 0
DWIDTH 32 0
BBX 26 32 3 0
BITMAP
FFFF8000
FFFFF000
FFFFF800
FFFFFC00
FFFFFE00
FFFFFF00
FC00FF00
FC003F80
FC003F80
FC001F80
FC001FC0
FC000FC0
FC000FC0
FC000FC0
FC000FC0
FC000FC0
FC000FC0
FC000FC0
FC000FC0
FC000FC0
FC001FC0
FC001F80
FC003F80
FC003F80
FC007F00
FC01FF00
FFFFFE00
FFFFFE00
FFFFFC00
FFFFF800
FFFFE000
FFFF8000
ENDCHAR
STARTCHAR E
ENCODING 69
SWIDTH 666 0
DWIDTH 29 0
BBX 24 32 4 0
BITMAP
FFFFFE
FFFFFE
FFFFFE
FFFFFE
FFFFFE
FFFFFE
FC0000
FC0000
FC0000
FC0000
FC0000
FC0000
FFFFF8
FFFFF8
FFFFF8
FFFFF8
FFFFF8
FFFFF8
FC0000
FC0000
FC0000
FC0000
FC0000
FC0000
FC0000
FC0000
FFFFFF
FFFFFF
FFFFFF
FFFFFF
FFFFFF
FFFFFF
ENDCHAR
STARTCHAR F
ENCODING 70
SWIDTH 610 0
DWIDTH 27 0
BBX 22 32 3 0
BITMAP
FFFFFC
FFFFFC
FFFFFC
FFFFFC
FFFFFC
FFFFFC
FC0000
FC0000
FC0000
FC0000
FC0000
FC0000
FC0000
FFFFF0
FFFFF0
FFFFF0
FFFFF0
FFFFF0
FFFFF0
FC0000
FC0000
FC0000
FC0000
FC0000
FC0000
FC0000
FC0000
FC0000
FC0000
FC0000
FC0000
FC0000
ENDCHAR
STARTCHAR G
ENCODING 71
SWIDTH 777 0
DWIDTH 34 0
BBX 29 32 2 0
BITMAP
001FF000
00FFFC00
03FFFF00
07FFFF80
0FFFFFC0
1FFFFFE0
1FF01FF0
3FC007F0
7F8003F8
7F0003F8
7E000000
7E000000
FC000000
FC000000
FC000000
FC00FFF8
FC00FFF8
FC00FFF8
FC00FFF8
FC00FFF8
FE00FFF8
7E0001F8
7E0001F8
7F0003F8
3FC007F8
3FF01FF8
1FFFFFF8
0FFFFFF8
07FFFEF8
03FFFC78
01FFF878
003FC078
ENDCHAR
STARTCHAR H
ENCODING 72
SWIDTH 722 0
DWIDTH 32 0
BBX 25 32 3 0
BITMAP
FC001F80
FC001F80
FC001F80
FC001F80
FC001F80
FC001F80
FC001F80
FC001F80
FC001F80
FC001F80
FC001F80
FC001F80
FFFFFF80
FFFFFF80
FFFFFF80
FFFFFF80
FFFFFF80
FFFFFF80
FC001F80
FC001F80
FC001F80
FC001F80
FC001F80
FC001F80
FC001F80
FC001F80
FC001F80
FC001F80
FC001F80
FC001F80
FC001F80
FC001F80
ENDCHAR
STARTCHAR I
ENCODING 73
SWIDTH 277 0
DWIDTH 12 0
BBX 6 32 3 0
BITMAP
FC
FC
FC
FC
FC
FC
FC
FC
FC
FC
FC
FC
FC
FC
FC
FC
FC
FC
FC
FC
FC
FC
FC
FC
FC
FC
FC
FC
FC
FC
FC
FC
ENDCHAR
STARTCHAR J
ENCODING 74
SWIDTH 556 0
DWIDTH 24 0
BBX 20 32 1 0
BITMAP
0003F0
0003F0
0003F0
0003F0
0003F0
0003F0
0003F0
0003F0
0003F0
0003F0
0003F0
0003F0
0003F0
0003F0
0003F0
0003F0
0003F0
0003F0
0003F0
0003F0
FC03F0
FC03F0
FC03F0
FC03F0
FE07F0
7F0FF0
7FFFE0
7FFFE0
3FFFC0
1FFFC0
0FFF00
03FC00
ENDCHAR
STARTCHAR K
ENCODING 75
SWIDTH 722 0
DWIDTH 32 0
BBX 27 32 3 0
BITMAP
FC003FC0
FC007F80
FC00FF00
FC01FE00
FC03FC00
FC07F800
FC0FF000
FC1FE000
FC3FC000
FC7F8000
FCFF0000
FCFE0000
FDFC0000
FFFC0000
FFFE0000
FFFE0000
FFFF0000
FFFF8000
FFBFC000
FF3FC000
FE1FE000
FC0FF000
FC0FF800
FC07F800
FC03FC00
FC03FE00
FC01FE00
FC00FF00
FC00FF80
FC007FC0
FC003FC0
FC001FE0
ENDCHAR
STARTCHAR L
ENCODING 76
SWIDTH 610 0
DWIDTH 27 0
BBX 22 32 3 0
BITMAP
FC0000
FC0000
FC0000
FC0000
FC0000
FC0000
FC0000
FC0000
FC0000
FC0000
FC0000
FC0000
FC0000
FC0000
FC0000
FC0000
FC0000
FC0000
FC0000
FC0000
FC0000
FC0000
FC0000
FC0000
FC0000
FC0000
FFFFFC
FFFFFC
FFFFFC
FFFFFC
FFFFFC
FFFFFC
ENDCHAR
STARTCHAR M
ENCODING 77
SWIDTH 833 0
DWIDTH 37 0
BBX 31 32 3 0
BITMAP
FFC003FE
FFC007FE
FFC007FE
FFE007FE
FFE007FE
FFE00FFE
FDE00FFE
FDF00FFE
FDF00F7E
FDF01F7E
FDF01F7E
FCF01F7E
FCF81E7E
FCF81E7E
FCF83E7E
FC783E7E
FC7C3E7E
FC7C3C7E
FC7C7C7E
FC3C7C7E
FC3E7C7E
FC3E787E
FC3EF87E
FC3EF87E
FC1EF87E
FC1FF87E
FC1FF07E
FC1FF07E
FC0FF07E
FC0FF07E
FC0FE07E
FC0FE07E
ENDCHAR
STARTCHAR N
ENCODING 78
SWIDTH 722 0
DWIDTH 32 0
BBX 26 32 3 0
BITMAP
FE000FC0
FF000FC0
FF000FC0
FF800FC0
FF800FC0
FFC00FC0
FFE00FC0
FFE00FC0
FFF00FC0
FFF00FC0
FDF80FC0
FDFC0FC0
FCFC0FC0
FC7E0FC0
FC7E0FC0
FC3F0FC0
FC3F8FC0
FC1F8FC0
FC1FCFC0
FC0FCFC0
FC07EFC0
FC07FFC0
FC03FFC0
FC03FFC0
FC01FFC0
FC00FFC0
FC00FFC0
FC007FC0
FC007FC0
FC003FC0
FC001FC0
FC001FC0
ENDCHAR
STARTCHAR O
ENCODING 79
SWIDTH 777 0
DWIDTH 34 0
BBX 30 33 2 0
BITMAP
001FE000
00FFFC00
03FFFF00
07FFFF80
0FFFFFC0
1FFFFFE0
3FF03FF0
3FC00FF0
7F8007F8
7F0003F8
7E0001F8
FE0001FC
FC0001FC
FC0000FC
FC0000FC
FC0000FC
FC0000FC
FC0000FC
FC0000FC
FC0000FC
FC0001FC
FE0001FC
7E0001F8
7F0003F8
7F8007F8
3FC00FF0
3FF03FF0
1FFFFFE0
0FFFFFC0
07FFFF80
03FFFF00
00FFFC00
003FF000
ENDCHAR
STARTCHAR P
ENCODING 80
SWIDTH 666 0
DWIDTH 29 0
BBX 23 32 4 0
BITMAP
FFFF80
FFFFE0
FFFFF0
FFFFF8
FFFFFC
FFFFFC
FC01FE
FC00FE
FC007E
FC007E
FC007E
FC007E
FC007E
FC00FE
FC01FE
FFFFFC
FFFFFC
FFFFF8
FFFFF0
FFFFE0
FFFF80
FC0000
FC0000
FC0000
FC0000
FC0000
FC0000
FC0000
FC0000
FC0000
FC0000
FC0000
ENDCHAR
STARTCHAR Q
ENCODING 81
SWIDTH 777 0
DWIDTH 34 0
BBX 30 34 2 -1
BITMAP
001FE000
00FFFC00
03FFFF00
07FFFF80
0FFFFFC0
1FFFFFE0
3FF03FE0
3FC00FF0
7F8007F8
7F0003F8
7E0001F8
FE0001FC
FC0000FC
FC0000FC
FC0000FC
FC0000FC
FC0000FC
FC0000FC
FC0000FC
FC0000FC
FC0011FC
FE0079F8
7E00FDF8
7F00FFF8
7F807FF0
3FC03FF0
3FF03FE0
1FFFFFE0
0FFFFFF0
07FFFFF8
03FFFFFC
00FFFCF8
001FE078
00000030
ENDCHAR
STARTCHAR R
ENCODING 82
SWIDTH 722 0
DWIDTH 32 0
BBX 26 32 4 0
BITMAP
FFFFE000
FFFFF800
FFFFFC00
FFFFFE00
FFFFFF00
FFFFFF00
FC007F80
FC003F80
FC001F80
FC001F80
FC001F80
FC001F80
FC003F00
FC007F00
FFFFFF00
FFFFFE00
FFFFF800
FFFFF800
FFFFFE00
FFFFFE00
FC00FF00
FC007F00
FC003F00
FC003F00
FC003F00
FC003F00
FC003F00
FC003F00
FC003F00
FC003F00
FC003F80
FC001FC0
ENDCHAR
STARTCHAR S
ENCODING 83
SWIDTH 666 0
DWIDTH 29 0
BBX 26 32 1 0
BITMAP
007F8000
03FFF000
0FFFF800
1FFFFC00
1FFFFE00
3FFFFF00
3F80FF00
7F003F80
7E001F80
7E001F80
7E000000
7F000000
7FE00000
3FFF0000
3FFFF000
1FFFFC00
07FFFF00
01FFFF80
001FFF80
0000FFC0
00001FC0
00000FC0
FE000FC0
FE000FC0
7F001FC0
7FC07F80
7FFFFF80
3FFFFF00
1FFFFE00
0FFFFC00
03FFF800
007FC000
ENDCHAR
STARTCHAR T
ENCODING 84
SWIDTH 610 0
DWIDTH 27 0
BBX 26 32 0 0
BITMAP
FFFFFFC0
FFFFFFC0
FFFFFFC0
FFFFFFC0
FFFFFFC0
FFFFFFC0
003F0000
003F0000
003F0000
003F0000
003F0000
003F0000
003F0000
003F0000
003F0000
003F0000
003F0000
003F0000
003F0000
003F0000
003F0000
003F0000
003F0000
003F0000
003F0000
003F0000
003F0000
003F0000
003F0000
003F0000
003F0000
003F0000
ENDCHAR
STARTCHAR U
ENCODING 85
SWIDTH 722 0
DWIDTH 32 0
BBX 25 32 3 0
BITMAP
FC001F80
FC001F80
FC001F80
FC001F80
FC001F80
FC001F80
FC001F80
FC001F80
FC001F80
FC001F80
FC001F80
FC001F80
FC001F80
FC001F80
FC001F80
FC001F80
FC001F80
FC001F80
FC001F80
FC001F80
FC001F80
FC001F80
FC001F80
FE003F80
7F007F00
7F80FF00
7FFFFF00
3FFFFE00
1FFFFC00
0FFFF800
07FFF000
00FF8000
ENDCHAR
STARTCHAR V
ENCODING 86
SWIDTH 666 0
DWIDTH 29 0
BBX 28 32 1 0
BITMAP
FE0007F0
FE0007F0
7F000FE0
7F000FE0
7F000FC0
3F801FC0
3F801FC0
3F801F80
1F801F80
1FC03F80
1FC03F00
0FC03F00
0FE07F00
0FE07E00
07E07E00
07E07E00
07F0FC00
03F0FC00
03F0FC00
03F9F800
01F9F800
01F9F800
01FBF000
00FFF000
00FFF000
00FFE000
007FE000
007FE000
007FC000
003FC000
003FC000
003F8000
ENDCHAR
STARTCHAR W
ENCODING 87
SWIDTH 943 0
DWIDTH 42 0
BBX 39 32 1 0
BITMAP
FE00FF007E
FE00FF807E
7F00FF807C
7F00FF80FC
7F01FF80FC
3F01FF80FC
3F01FFC0F8
3F81EFC0F8
3F81EFC1F8
1F83EFC1F8
1F83EFC1F0
1F83E7E1F0
1FC3C7E1F0
0FC3C7E1F0
0FC7C7E3E0
0FC7C7E3E0
07C7C3F3E0
07E783F3E0
07E783F3C0
07EF83F3C0
03EF83F7C0
03EF81FFC0
03FF01FF80
01FF01FF80
01FF01FF80
01FF01FF80
01FF00FF00
00FE00FF00
00FE00FF00
00FE00FE00
007E00FE00
007E007E00
ENDCHAR
STARTCHAR X
ENCODING 88
SWIDTH 666 0
DWIDTH 29 0
BBX 28 32 1 0
BITMAP
7F001FE0
7F801FC0
3F803FC0
3FC03F80
1FE07F00
0FE0FF00
0FF0FE00
07F1FE00
07F9FC00
03FBF800
01FFF800
01FFF000
00FFE000
007FE000
007FC000
003FC000
007FC000
007FE000
00FFE000
00FFF000
01FFF800
03FFF800
03F9FC00
07F1FE00
0FF0FE00
0FE0FF00
1FE07F00
1FC07F80
3F803FC0
7F803FC0
7F001FE0
FF001FF0
ENDCHAR
STARTCHAR Y
ENCODING 89
SWIDTH 666 0
DWIDTH 29 0
BBX 27 32 1 0
BITMAP
FF000FE0
7F801FE0
7F801FC0
3F801FC0
1FC03F80
1FC03F80
0FE07F00
0FE07F00
07F0FE00
07F0FE00
03F8FC00
03F9FC00
01F9F800
01FFF000
00FFF000
007FE000
007FE000
003FC000
003FC000
001F8000
001F8000
001F8000
001F8000
001F8000
001F8000
001F8000
001F8000
001F8000
001F8000
001F8000
001F8000
001F8000
ENDCHAR
STARTCHAR Z
ENCODING 90
SWIDTH 610 0
DWIDTH 27 0
BBX 25 32 1 0
BITMAP
7FFFFF80
7FFFFF80
7FFFFF80
7FFFFF80
7FFFFF80
7FFFFF80
0000FF00
0001FE00
0003FC00
0003FC00
0007F800
000FF000
001FE000
003FC000
003FC000
007F8000
00FF0000
01FE0000
03FC0000
07F80000
07F80000
0FF00000
1FE00000
3FC00000
7F800000
7F800000
FFFFFF80
FFFFFF80
FFFFFF80
FFFFFF80
FFFFFF80
FFFFFF80
ENDCHAR
STARTCHAR bracketleft
ENCODING 91
SWIDTH 333 0
DWIDTH 15 0
BBX 11 40 3 -8
BITMAP
FFE0
FFE0
FFE0
FFE0
FC00
FC00
FC00
FC00
FC00
FC00
FC00
FC00
FC00
FC00
FC00
FC00
FC00
FC00
FC00
FC00
FC00
FC00
FC00
FC00
FC00
FC00
FC00
FC00
FC00
FC00
FC00
FC00
FC00
FC00
FC00
FC00
FFE0
FFE0
FFE0
FFE0
ENDCHAR
STARTCHAR backslash
ENCODING 92
SWIDTH 277 0
DWIDTH 12 0
BBX 17 33 -2 0
BITMAP
F80000
F80000
7C0000
7C0000
7C0000
3E0000
3E0000
3E0000
1F0000
1F0000
1F8000
0F8000
0F8000
07C000
07C000
07C000
03E000
03E000
03F000
01F000
01F000
00F800
00F800
00F800
007C00
007C00
007E00
003E00
003E00
001F00
001F00
001F00
000F80
ENDCHAR
STARTCHAR bracketright
ENCODING 93
SWIDTH 333 0
DWIDTH 15 0
BBX 11 40 1 -8
BITMAP
FFE0
FFE0
FFE0
FFE0
07E0
07E0
07E0
07E0
07E0
07E0
07E0
07E0
07E0
07E0
07E0
07E0
07E0
07E0
07E0
07E0
07E0
07E0
07E0
07E0
07E0
07E0
07E0
07E0
07E0
07E0
07E0
07E0
07E0
07E0
07E0
07E0
FFE0
FFE0
FFE0
FFE0
ENDCHAR
STARTCHAR asciicircum
ENCODING 94
SWIDTH 583 0
DWIDTH 26 0
BBX 20 19 3 13
BITMAP
00F800
01F800
01FC00
03FC00
03FE00
03FE00
07FE00
07DF00
0FDF00
0F9F80
0F8F80
1F0F80
1F07C0
3F07C0
3E07E0
7E03E0
7C03F0
7C01F0
FC01F0
ENDCHAR
STARTCHAR underscore
ENCODING 95
SWIDTH 556 0
DWIDTH 24 0
BBX 24 2 0 -6
BITMAP
FFFFFF
FFFFFF
ENDCHAR
STARTCHAR grave
ENCODING 96
SWIDTH 333 0
DWIDTH 15 0
BBX 10 6 0 27
BITMAP
FC00
7E00
3F00
1F00
0F80
07C0
ENDCHAR
STARTCHAR a
ENCODING 97
SWIDTH 556 0
DWIDTH 24 0
BBX 22 24 1 0
BITMAP
01FE00
0FFFC0
1FFFE0
3FFFF0
3FFFF0
7FFFF8
7F03F8
7E01F8
0001F8
0007F8
03FFF8
1FFFF8
3FFFF8
7FF9F8
7F01F8
FE01F8
FC01F8
FC03F8
FC03F8
FE0FF8
7FFFF8
7FFFF8
3FF9FC
0FE0FC
ENDCHAR
STARTCHAR b
ENCODING 98
SWIDTH 610 0
DWIDTH 27 0
BBX 22 32 3 0
BITMAP
FC0000
FC0000
FC0000
FC0000
FC0000
FC0000
FC0000
FC0000
FC3F00
FCFFC0
FDFFE0
FFFFF0
FFFFF0
FFFFF8
FF87F8
FE01FC
FE01FC
FC00FC
FC00FC
FC00FC
FC00FC
FC00FC
FC00FC
FE01FC
FE01F8
FF87F8
FFFFF8
FFFFF0
FFFFF0
FDFFE0
FCFFC0
FC3F00
ENDCHAR
STARTCHAR c
ENCODING 99
SWIDTH 556 0
DWIDTH 24 0
BBX 21 24 2 0
BITMAP
01FE00
07FF80
0FFFE0
1FFFF0
3FFFF0
7FFFF8
7F83F8
7E01F8
FE0000
FC0000
FC0000
FC0000
FC0000
FC0000
FC0000
FE01F8
7E03F8
7F07F0
7FFFF0
3FFFE0
3FFFE0
1FFFC0
07FF80
01FC00
ENDCHAR
STARTCHAR d
ENCODING 100
SWIDTH 610 0
DWIDTH 27 0
BBX 23 32 1 0
BITMAP
00007E
00007E
00007E
00007E
00007E
00007E
00007E
00007E
01F87E
07FE7E
1FFF7E
1FFFFE
3FFFFE
7FFFFE
7F83FE
7F00FE
FE00FE
FC007E
FC007E
FC007E
FC007E
FC007E
FC007E
FE00FE
7E00FE
7F83FE
7FFFFE
3FFFFE
1FFFFE
1FFF7E
07FE7E
01F87E
ENDCHAR
STARTCHAR e
ENCODING 101
SWIDTH 556 0
DWIDTH 24 0
BBX 22 24 1 0
BITMAP
01FE00
07FF80
0FFFC0
1FFFE0
3FFFF0
7FFFF8
7F87F8
7E01F8
FE01FC
FC00FC
FFFFFC
FFFFFC
FFFFFC
FFFFFC
FC0000
FC0000
FE0000
7F81FC
7FFFF8
3FFFF8
3FFFF0
0FFFE0
07FFC0
00FE00
ENDCHAR
STARTCHAR f
ENCODING 102
SWIDTH 333 0
DWIDTH 15 0
BBX 13 32 1 0
BITMAP
01F8
07F8
0FF8
1FF8
1FF8
1FF8
1F80
1F80
1F80
FFF8
FFF8
FFF8
FFF8
1F80
1F80
1F80
1F80
1F80
1F80
1F80
1F80
1F80
1F80
1F80
1F80
1F80
1F80
1F80
1F80
1F80
1F80
1F80
ENDCHAR
STARTCHAR g
ENCODING 103
SWIDTH 610 0
DWIDTH 27 0
BBX 23 34 1 -10
BITMAP
01FC7E
07FE7E
0FFF7E
1FFFFE
3FFFFE
3FFFFE
7F83FE
7F01FE
FE00FE
FC007E
FC007E
FC007E
FC007E
FC007E
FC007E
FE00FE
FE01FE
7F83FE
7FFFFE
3FFFFE
3FFFFE
1FFF7E
0FFE7E
03F87E
00007E
0000FE
0000FE
7E03FC
7FFFFC
7FFFFC
3FFFF8
1FFFF0
0FFFE0
01FF00
ENDCHAR
STARTCHAR h
ENCODING 104
SWIDTH 610 0
DWIDTH 27 0
BBX 21 30 3 0
BITMAP
FC0000
FC0000
FC0000
FC0000
FC0000
FC0000
FC3F00
FCFFC0
FDFFE0
FFFFF0
FFFFF0
FFFFF8
FF87F8
FE03F8
FE01F8
FC01F8
FC01F8
FC01F8
FC01F8
FC01F8
FC01F8
FC01F8
FC01F8
FC01F8
FC01F8
FC01F8
FC01F8
FC01F8
FC01F8
FC01F8
ENDCHAR
STARTCHAR i
ENCODING 105
SWIDTH 277 0
DWIDTH 12 0
BBX 6 32 3 0
BITMAP
FC
FC
FC
FC
FC
FC
00
00
FC
FC
FC
FC
FC
FC
FC
FC
FC
FC
FC
FC
FC
FC
FC
FC
FC
FC
FC
FC
FC
FC
FC
FC
ENDCHAR
STARTCHAR j
ENCODING 106
SWIDTH 277 0
DWIDTH 12 0
BBX 9 41 0 -9
BITMAP
1F80
1F80
1F80
1F80
1F80
1F80
0000
0000
0000
1F80
1F80
1F80
1F80
1F80
1F80
1F80
1F80
1F80
1F80
1F80
1F80
1F80
1F80
1F80
1F80
1F80
1F80
1F80
1F80
1F80
1F80
1F80
1F80
1F80
1F80
FF80
FF80
FF80
FF00
FE00
FC00
ENDCHAR
STARTCHAR k
ENCODING 107
SWIDTH 556 0
DWIDTH 24 0
BBX 21 32 3 0
BITMAP
FC0000
FC0000
FC0000
FC0000
FC0000
FC0000
FC0000
FC0000
FC0000
FC07F8
FC0FF0
FC1FE0
FC3FC0
FC7F80
FC7F00
FCFE00
FDFC00
FFF800
FFFC00
FFFC00
FFFE00
FFFE00
FF7F00
FE7F00
FC3F80
FC3FC0
FC1FC0
FC0FE0
FC0FE0
FC07F0
FC07F8
FC03F8
ENDCHAR
STARTCHAR l
ENCODING 108
SWIDTH 277 0
DWIDTH 12 0
BBX 6 32 3 0
BITMAP
FC
FC
FC
FC
FC
FC
FC
FC
FC
FC
FC
FC
FC
FC
FC
FC
FC
FC
FC
FC
FC
FC
FC
FC
FC
FC
FC
FC
FC
FC
FC
FC
ENDCHAR
STARTCHAR m
ENCODING 109
SWIDTH 889 0
DWIDTH 39 0
BBX 33 24 3 0
BITMAP
FC7E01F800
FCFF07FC00
FDFF8FFE00
FFFFDFFF00
FFFFFFFF00
FFFFFFFF80
FF0FF83F80
FE07F01F80
FC07E01F80
FC07E01F80
FC07E01F80
FC07E01F80
FC07E01F80
FC07E01F80
FC07E01F80
FC07E01F80
FC07E01F80
FC07E01F80
FC07E01F80
FC07E01F80
FC07E01F80
FC07E01F80
FC07E01F80
FC07E01F80
ENDCHAR
STARTCHAR n
ENCODING 110
SWIDTH 610 0
DWIDTH 27 0
BBX 21 24 3 0
BITMAP
FC3F00
FCFFC0
FDFFE0
FFFFF0
FFFFF0
FFFFF8
FF87F8
FE03F8
FE01F8
FC01F8
FC01F8
FC01F8
FC01F8
FC01F8
FC01F8
FC01F8
FC01F8
FC01F8
FC01F8
FC01F8
FC01F8
FC01F8
FC01F8
FC01F8
ENDCHAR
STARTCHAR o
ENCODING 111
SWIDTH 610 0
DWIDTH 27 0
BBX 24 24 1 0
BITMAP
00FF00
07FFE0
0FFFF0
1FFFF8
3FFFFC
3FFFFC
7F81FE
7F00FE
FE007F
FC003F
FC003F
FC003F
FC003F
FC003F
FC003F
FE007F
7F00FE
7F81FE
3FFFFC
3FFFFC
1FFFF8
0FFFF0
07FFE0
00FF00
ENDCHAR
STARTCHAR p
ENCODING 112
SWIDTH 610 0
DWIDTH 27 0
BBX 22 33 3 -9
BITMAP
FC3F00
FCFFC0
FDFFE0
FFFFF0
FFFFF0
FFFFF8
FF87F8
FE01FC
FE01FC
FC00FC
FC00FC
FC00FC
FC00FC
FC00FC
FC00FC
FC01FC
FE01F8
FF07F8
FFFFF8
FFFFF0
FFFFF0
FDFFE0
FCFFC0
FC3F00
FC0000
FC0000
FC0000
FC0000
FC0000
FC0000
FC0000
FC0000
FC0000
ENDCHAR
STARTCHAR q
ENCODING 113
SWIDTH 610 0
DWIDTH 27 0
BBX 23 31 1 -7
BITMAP
01F87E
07FE7E
0FFF7E
1FFFFE
3FFFFE
7FFFFE
7F83FE
7F00FE
FE00FE
FC007E
FC007E
FC007E
FC007E
FC007E
FC007E
FE00FE
7E00FE
7F83FE
7FFFFE
3FFFFE
1FFFFE
1FFF7E
07FE7E
01F87E
00007E
00007E
00007E
00007E
00007E
00007E
00007E
ENDCHAR
STARTCHAR r
ENCODING 114
SWIDTH 389 0
DWIDTH 17 0
BBX 13 24 3 0
BITMAP
FC38
FCF8
FDF8
FFF8
FFF8
FFF8
FF80
FE00
FE00
FC00
FC00
FC00
FC00
FC00
FC00
FC00
FC00
FC00
FC00
FC00
FC00
FC00
FC00
FC00
ENDCHAR
STARTCHAR s
ENCODING 115
SWIDTH 556 0
DWIDTH 24 0
BBX 22 24 1 0
BITMAP
01FE00
07FFC0
0FFFE0
1FFFF0
3FFFF8
3FFFF8
7F01F8
7E0000
7F8000
7FF800
7FFF80
3FFFF0
1FFFF8
07FFFC
00FFFC
000FFC
FE01FC
FF00FC
7FFFFC
7FFFF8
3FFFF0
1FFFF0
0FFFC0
01FF00
ENDCHAR
STARTCHAR t
ENCODING 116
SWIDTH 333 0
DWIDTH 15 0
BBX 12 29 1 0
BITMAP
1F80
1F80
1F80
1F80
1F80
1F80
FFF0
FFF0
FFF0
FFF0
1F80
1F80
1F80
1F80
1F80
1F80
1F80
1F80
1F80
1F80
1F80
1F80
1F80
1FF0
1FF0
1FF0
1FF0
0FF0
07F0
ENDCHAR
STARTCHAR u
ENCODING 117
SWIDTH 610 0
DWIDTH 27 0
BBX 21 24 3 0
BITMAP
FC01F8
FC01F8
FC01F8
FC01F8
FC01F8
FC01F8
FC01F8
FC01F8
FC01F8
FC01F8
FC01F8
FC01F8
FC01F8
FC01F8
FC01F8
FC03F8
FE03F8
FF0FF8
FFFFF8
7FFFF8
7FFFF8
3FFDF8
1FF9F8
07E1F8
ENDCHAR
STARTCHAR v
ENCODING 118
SWIDTH 556 0
DWIDTH 24 0
BBX 23 24 1 0
BITMAP
FE00FE
FE00FC
FE00FC
7E01FC
7F01F8
7F01F8
3F03F8
3F83F0
1F83F0
1F83F0
1F87E0
0FC7E0
0FC7C0
0FCFC0
07CFC0
07EF80
07EF80
03FF80
03FF00
03FF00
01FF00
01FE00
01FE00
00FE00
ENDCHAR
STARTCHAR w
ENCODING 119
SWIDTH 777 0
DWIDTH 34 0
BBX 34 24 0 0
BITMAP
FE03F01FC0
7E03F01F80
7E07F81F80
7F07F81F80
7F07F83F00
3F07F83F00
3F07F83F00
3F0F7C3F00
1F8F7C3E00
1F8F3C7E00
1F8F3C7E00
1F8F3C7C00
0F9E3E7C00
0FDE3E7C00
0FDE1EFC00
0FDE1EF800
07DC1EF800
07FC1FF800
07FC1FF800
03FC0FF000
03FC0FF000
03F80FF000
03F80FE000
01F807E000
ENDCHAR
STARTCHAR x
ENCODING 120
SWIDTH 556 0
DWIDTH 24 0
BBX 22 24 1 0
BITMAP
FF01FC
7F03F8
3F83F8
3F87F0
1FC7E0
1FCFE0
0FEFC0
07FFC0
07FF80
03FF00
01FF00
01FE00
01FE00
03FF00
03FF80
07FF80
0FFFC0
0FFFE0
1FCFE0
3FC7F0
3F87F0
7F03F8
7F03FC
FE01FC
ENDCHAR
STARTCHAR y
ENCODING 121
SWIDTH 556 0
DWIDTH 24 0
BBX 23 33 0 -9
BITMAP
FE007E
7E00FE
7F00FE
7F00FC
3F00FC
3F81FC
3F81F8
1F81F8
1FC3F8
0FC3F0
0FC3F0
0FE3E0
07E7E0
07E7E0
07E7C0
03FFC0
03FFC0
03FF80
01FF80
01FF80
00FF00
00FF00
00FF00
007E00
007E00
00FE00
01FC00
1FFC00
1FF800
1FF800
1FF000
1FF000
1FC000
ENDCHAR
STARTCHAR z
ENCODING 122
SWIDTH 500 0
DWIDTH 22 0
BBX 20 24 1 0
BITMAP
7FFFF0
7FFFF0
7FFFF0
7FFFF0
7FFFF0
7FFFF0
001FE0
003FC0
007F80
00FF00
01FE00
03FC00
07F800
0FF000
1FE000
3FC000
7F8000
FF0000
FFFFF0
FFFFF0
FFFFF0
FFFFF0
FFFFF0
FFFFF0
ENDCHAR
STARTCHAR braceleft
ENCODING 123
SWIDTH 389 0
DWIDTH 17 0
BBX 13 41 0 -9
BITMAP
0078
01F8
03F8
07F0
0FE0
0FC0
0FC0
0FC0
0FC0
0FC0
0FC0
0FC0
0FC0
0FC0
0FC0
0FC0
1F80
3F80
7F00
FE00
F800
FE00
7F00
1F80
1F80
0FC0
0FC0
0FC0
0FC0
0FC0
0FC0
0FC0
0FC0
0FC0
0FC0
0FC0
0FE0
07F0
07F8
01F8
0078
ENDCHAR
STARTCHAR bar
ENCODING 124
SWIDTH 279 0
DWIDTH 12 0
BBX 6 32 2 0
BITMAP
FC
FC
FC
FC
FC
FC
FC
FC
FC
FC
FC
FC
FC
FC
FC
FC
FC
FC
FC
FC
FC
FC
FC
FC
FC
FC
FC
FC
FC
FC
FC
FC
ENDCHAR
STARTCHAR braceright
ENCODING 125
SWIDTH 389 0
DWIDTH 17 0
BBX 13 41 1 -9
BITMAP
F000
FC00
FE00
7F00
3F80
1F80
1F80
1F80
1F80
1F80
1F80
1F80
1F80
1F80
1F80
1F80
0FC0
0FC0
07F0
03F8
00F8
03F8
07F0
0FC0
1FC0
1F80
1F80
1F80
1F80
1F80
1F80
1F80
1F80
1F80
1F80
1F80
3F80
7F00
FF00
FC00
F000
ENDCHAR
STARTCHAR asciitilde
ENCODING 126
SWIDTH 583 0
DWIDTH 26 0
BBX 25 11 0 6
BITMAP
00000380
0FC00780
1FF80780
3FFF0F80
3FFFFF00
7FFFFF00
7FFFFE00
787FFE00
F00FFC00
E001F000
E0000000
ENDCHAR
STARTCHAR uni00A0
ENCODING 160
SWIDTH 277 0
DWIDTH 12 0
BBX 1 1 0 0
BITMAP
00
ENDCHAR
STARTCHAR exclamdown
ENCODING 161
SWIDTH 333 0
DWIDTH 15 0
BBX 6 31 5 -8
BITMAP
FC
FC
FC
FC
FC
FC
00
00
30
78
78
78
78
78
78
78
78
78
F8
FC
FC
FC
FC
FC
FC
FC
FC
FC
FC
FC
FC
ENDCHAR
STARTCHAR cent
ENCODING 162
SWIDTH 556 0
DWIDTH 24 0
BBX 22 34 1 -6
BITMAP
000180
000380
000300
000300
00FF00
07FF80
0FFFE0
1FFFF0
3FFFF8
7FFFF8
7F8FF8
7F1DFC
FE18FC
FE1800
FC1800
FC3800
FC3000
FC3000
FC7000
FC60FC
FE61FC
7FE3F8
7FFFF8
3FFFF8
3FFFF0
1FFFE0
0FFFC0
07FE00
038000
030000
030000
070000
070000
060000
ENDCHAR
STARTCHAR sterling
ENCODING 163
SWIDTH 556 0
DWIDTH 24 0
BBX 23 32 1 0
BITMAP
01FE00
07FF80
0FFFE0
1FFFF0
3FFFF8
3FFFF8
7F83F8
7F01FC
7E00FC
7E00FC
7E0000
7E0000
3F0000
3F0000
1F8000
FFFE00
FFFE00
0FC000
07C000
07C000
07C000
07C000
078000
0F0000
1E0000
1CFC18
3FFFF8
FFFFFC
7FFFFC
7FFFFC
3FFFFE
101FF0
ENDCHAR
STARTCHAR currency
ENCODING 164
SWIDTH 556 0
DWIDTH 24 0
BBX 20 22 2 5
BITMAP
200040
71F0E0
FBFDF0
FFFFF0
FFFFF0
7FFFE0
3FFFC0
3F0FC0
7C03C0
7801E0
7801E0
7801E0
7801E0
7C03C0
3F0FC0
3FFFC0
7FFFE0
FFFFF0
FFFFF0
FBFDF0
71F8E0
200040
ENDCHAR
STARTCHAR yen
ENCODING 165
SWIDTH 556 0
DWIDTH 24 0
BBX 25 31 -1 0
BITMAP
FF003F80
7F003F80
7F003F00
3F807F00
3F807E00
1FC0FE00
1FC0FC00
0FE0FC00
0FE1F800
07E1F800
3FF3FF00
3FF3FF00
3FFFFF00
01FFE000
01FFE000
00FFC000
00FFC000
007F8000
1FFFFE00
1FFFFE00
1FFFFE00
003F0000
003F0000
003F0000
003F0000
003F0000
003F0000
003F0000
003F0000
003F0000
003F0000
ENDCHAR
STARTCHAR brokenbar
ENCODING 166
SWIDTH 279 0
DWIDTH 12 0
BBX 6 32 2 0
BITMAP
FC
FC
FC
FC
FC
FC
FC
FC
FC
FC
FC
FC
FC
00
00
00
00
00
00
FC
FC
FC
FC
FC
FC
FC
FC
FC
FC
FC
FC
FC
ENDCHAR
STARTCHAR section
ENCODING 167
SWIDTH 556 0
DWIDTH 24 0
BBX 22 40 1 -8
BITMAP
00FE00
07FF80
0FFFE0
1FFFF0
1FFFF0
3FFFF8
3F83F8
3F01F8
3F0000
3F8000
3FF000
1FFC00
0FFF00
1FFFC0
3FFFE0
7EFFF0
783FF8
F80FFC
F803FC
FC01FC
FE00FC
FF80FC
7FF0FC
3FFDF8
1FFFF8
0FFFF0
03FFE0
00FFF0
001FF0
0007F8
0003F8
0001F8
3F01F8
3F83F8
3FFFF8
1FFFF0
1FFFF0
0FFFE0
07FF80
00FE00
ENDCHAR
STARTCHAR dieresis
ENCODING 168
SWIDTH 333 0
DWIDTH 15 0
BBX 15 6 -1 26
BITMAP
FC7E
FC7E
FC7E
FC7E
FC7E
FC7E
ENDCHAR
STARTCHAR copyright
ENCODING 169
SWIDTH 736 0
DWIDTH 32 0
BBX 31 32 1 0
BITMAP
001FE000
00FFFC00
01FFFF00
03F03F80
0F8007C0
0F0003E0
1E0FC0F0
3C3FF078
387FF878
787FFC3C
70F83E1C
70F01E1C
E1F0001E
E1E0000E
E1E0000E
E1E0000E
E1E0000E
E1E0000E
E1E0000E
E1F0000E
70F01E1C
70F83E1C
787FFC3C
383FF838
3C1FF078
1E0FC0F0
1F0001E0
0F8007C0
07E01F80
01FFFF00
00FFFC00
001FE000
ENDCHAR
STARTCHAR ordfeminine
ENCODING 170
SWIDTH 370 0
DWIDTH 16 0
BBX 14 15 1 18
BITMAP
1FC0
3FF0
7FF8
78F8
0078
0078
07F8
3FF8
7E78
F078
F078
F0F8
FFF8
7F7C
3E3C
ENDCHAR
STARTCHAR guillemotleft
ENCODING 171
SWIDTH 556 0
DWIDTH 24 0
BBX 17 18 4 3
BITMAP
000080
060180
0E0380
1E0780
3E1F80
7E3F00
FC7E00
F07C00
E07800
E07800
F87C00
FC7E00
7E3F00
3E0F80
1E0780
0E0380
020180
000080
ENDCHAR
STARTCHAR logicalnot
ENCODING 172
SWIDTH 583 0
DWIDTH 26 0
BBX 23 15 2 5
BITMAP
FFFFFE
FFFFFE
FFFFFE
FFFFFE
FFFFFE
FFFFFE
00007E
00007E
00007E
00007E
00007E
00007E
00007E
00007E
00007E
ENDCHAR
STARTCHAR uni00AD
ENCODING 173
SWIDTH 333 0
DWIDTH 15 0
BBX 12 6 1 9
BITMAP
FFF0
FFF0
FFF0
FFF0
FFF0
FFF0
ENDCHAR
STARTCHAR registered
ENCODING 174
SWIDTH 736 0
DWIDTH 32 0
BBX 31 32 1 0
BITMAP
001FE000
00FFFC00
01FFFF00
07E03F80
0F8007C0
1F0001E0
1E0000F0
3CFFE078
78FFF838
70FFF83C
70F07C1C
F0F03C1C
E0F03C0E
E0F03C0E
E0F0780E
E0FFF00E
E0FFE00E
E0FFF80E
E0F0F80E
E0F07C1E
70F03C1C
70F03C1C
78F03C3C
38F03C78
3C000070
1E0000F0
0F0003E0
0F8007C0
07E03F80
01FFFE00
00FFFC00
001FE000
ENDCHAR
STARTCHAR macron
ENCODING 175
SWIDTH 333 0
DWIDTH 15 0
BBX 15 3 -1 28
BITMAP
FFFE
FFFE
FFFE
ENDCHAR
STARTCHAR degree
ENCODING 176
SWIDTH 399 0
DWIDTH 18 0
BBX 13 14 2 17
BITMAP
0F80
3FE0
7FF0
78F0
F078
E038
E038
E038
E038
F078
78F0
7FF0
3FE0
0F80
ENDCHAR
STARTCHAR plusminus
ENCODING 177
SWIDTH 548 0
DWIDTH 24 0
BBX 22 23 2 0
BITMAP
00FC00
00FC00
00FC00
00FC00
00FC00
FFFFFC
FFFFFC
FFFFFC
FFFFFC
FFFFFC
FFFFFC
00FC00
00FC00
00FC00
00FC00
000000
000000
FFFFFC
FFFFFC
FFFFFC
FFFFFC
FFFFFC
FFFFFC
ENDCHAR
STARTCHAR uni00B2
ENCODING 178
SWIDTH 333 0
DWIDTH 15 0
BBX 13 19 1 12
BITMAP
1F80
3FE0
7FF0
F8F8
F078
F078
0078
0078
00F0
01F0
03E0
07C0
1F80
3E00
7C00
7800
FFF8
FFF8
FFF8
ENDCHAR
STARTCHAR uni00B3
ENCODING 179
SWIDTH 333 0
DWIDTH 15 0
BBX 14 19 0 12
BITMAP
0FC0
1FF0
3FF0
78F8
7078
7078
00F8
07F0
07F0
07F8
007C
003C
003C
F03C
F03C
F878
7FF8
3FF0
0FC0
ENDCHAR
STARTCHAR acute
ENCODING 180
SWIDTH 333 0
DWIDTH 15 0
BBX 10 6 3 27
BITMAP
0FC0
1F80
3F00
3E00
7C00
F800
ENDCHAR
STARTCHAR uni00B5
ENCODING 181
SWIDTH 576 0
DWIDTH 25 0
BBX 27 32 -1 -8
BITMAP
03F007E0
03F007E0
03F00FE0
07E00FC0
07E00FC0
07E00FC0
07E00FC0
07E01FC0
0FC01F80
0FC01F80
0FC01F80
0FC01F80
0FC03F80
1F803F80
1F803F00
1F803F00
1F807F00
1FC1FF00
1FFFFF00
3FFFBF00
3FFFBE00
3FFF7E00
3FFC7E00
3F787E00
7E000000
7E000000
7E000000
7E000000
7E000000
FC000000
FC000000
FC000000
ENDCHAR
STARTCHAR paragraph
ENCODING 182
SWIDTH 556 0
DWIDTH 24 0
BBX 24 39 -1 -7
BITMAP
03FFFF
0FFFFF
1FFFFF
3FFFFF
3FF878
7FF878
7FF878
FFF878
FFF878
FFF878
FFF878
FFF878
FFF878
FFF878
7FF878
7FF878
7FF878
3FF878
1FF878
0FF878
01F878
007878
007878
007878
007878
007878
007878
007878
007878
007878
007878
007878
007878
007878
007878
007878
007878
007878
007878
ENDCHAR
STARTCHAR periodcentered
ENCODING 183
SWIDTH 277 0
DWIDTH 12 0
BBX 7 7 2 12
BITMAP
38
7C
FE
FE
FE
7C
38
ENDCHAR
STARTCHAR cedilla
ENCODING 184
SWIDTH 333 0
DWIDTH 15 0
BBX 10 10 1 -10
BITMAP
1C00
7800
F800
7F80
3FC0
03C0
03C0
87C0
FF80
7E00
ENDCHAR
STARTCHAR uni00B9
ENCODING 185
SWIDTH 333 0
DWIDTH 15 0
BBX 9 17 2 13
BITMAP
0380
0F80
FF80
FF80
FF80
0780
0780
0780
0780
0780
0780
0780
0780
0780
0780
0780
0780
ENDCHAR
STARTCHAR ordmasculine
ENCODING 186
SWIDTH 365 0
DWIDTH 16 0
BBX 16 15 0 18
BITMAP
07E0
1FF8
3FFC
7C3E
F81F
F00F
F00F
F00F
F00F
F00F
F81F
7C3E
3FFC
1FF8
0FF0
ENDCHAR
STARTCHAR guillemotright
ENCODING 187
SWIDTH 556 0
DWIDTH 24 0
BBX 17 17 0 4
BITMAP
800000
C02000
E03000
F03C00
F83E00
FC3F00
3E1F80
1E0F80
0E0780
0E0780
1E0F80
7E1F80
FC3F00
F83C00
F03800
E03000
802000
ENDCHAR
STARTCHAR onequarter
ENCODING 188
SWIDTH 833 0
DWIDTH 37 0
BBX 33 31 2 -1
BITMAP
0380007000
0F8000E000
FF8001E000
FF8001C000
FF8003C000
0780038000
0780070000
07800F0000
07800E0000
07801E0000
07801C0000
0780380000
0780783E00
0780707E00
0780E07E00
0780E0FE00
0781C1DE00
0783C1DE00
0003839E00
0007071E00
0007071E00
000E0E1E00
001E1C1E00
001C1FFF80
00381FFF80
00381FFF80
0070001E00
00E0001E00
00E0001E00
01C0001E00
01C0000000
ENDCHAR
STARTCHAR onehalf
ENCODING 189
SWIDTH 833 0
DWIDTH 37 0
BBX 34 30 1 0
BITMAP
038001E000
0F8001C000
FF8003C000
FF80038000
FF80078000
07800F0000
07800E0000
07801E0000
07803C0000
0780380000
0780780000
078070FC00
0780F3FF00
0781E7FF80
0781C78780
0783CF03C0
07838F03C0
00070003C0
000F0007C0
000E0007C0
001E001F80
003C003F00
003800FE00
007801FC00
007001F000
00E003E000
01E0038000
01C007FFC0
03C007FFC0
078007FFC0
ENDCHAR
STARTCHAR threequarters
ENCODING 190
SWIDTH 833 0
DWIDTH 37 0
BBX 34 32 2 -1
BITMAP
0FC0003800
1FF0007800
3FF0007000
78F800F000
707800E000
707801C000
00F803C000
07F0038000
07F0078000
07F8070000
007C0F0000
003C1E0000
003C1C0000
F03C3C1F00
F03C383F00
F878783F00
7FF8707F00
3FF0E0EF00
0FC1E0EF00
0001C1CF00
0003C38F00
0003838F00
0007070F00
000F0E0F00
000E0FFFC0
001E0FFFC0
001C0FFFC0
0038000F00
0078000F00
0070000F00
00F0000F00
00E0000000
ENDCHAR
STARTCHAR questiondown
ENCODING 191
SWIDTH 610 0
DWIDTH 27 0
BBX 22 32 2 -9
BITMAP
00FC00
00FC00
00FC00
00FC00
00FC00
00FC00
000000
000000
000000
00FC00
00FC00
00FC00
01F800
03F800
07F800
0FF000
3FE000
7F8000
7F0000
FE0000
FC0000
FC0000
FC00FC
FC00FC
FE01FC
FF03F8
7FFFF8
7FFFF8
3FFFF0
1FFFE0
07FFC0
00FE00
ENDCHAR
STARTCHAR Agrave
ENCODING 192
SWIDTH 722 0
DWIDTH 32 0
BBX 30 41 1 0
BITMAP
00FE0000
007E0000
003F0000
001F8000
000F8000
0007C000
0003E000
00000000
00000000
001FE000
001FE000
001FF000
003FF000
003FF000
007FF800
007FF800
007FFC00
00FFFC00
00FCFC00
00FCFE00
01FCFE00
01F87E00
01F87F00
03F87F00
03F03F00
03F03F80
07F03F80
07F01F80
07E01FC0
0FFFFFC0
0FFFFFC0
1FFFFFE0
1FFFFFE0
1FFFFFE0
3FFFFFF0
3F8007F0
3F8007F8
7F0003F8
7F0003F8
7F0003FC
FE0001FC
ENDCHAR
STARTCHAR Aacute
ENCODING 193
SWIDTH 722 0
DWIDTH 32 0
BBX 30 41 1 0
BITMAP
0000FC00
0001F800
0003F000
0003E000
0007C000
000F8000
000F0000
00000000
00000000
001FE000
001FE000
001FF000
003FF000
003FF000
007FF800
007FF800
007FFC00
00FFFC00
00FCFC00
00FCFE00
01FCFE00
01F87E00
01F87F00
03F87F00
03F03F00
03F03F80
07F03F80
07F01F80
07E01FC0
0FFFFFC0
0FFFFFC0
1FFFFFE0
1FFFFFE0
1FFFFFE0
3FFFFFF0
3F8007F0
3F8007F8
7F0003F8
7F0003F8
7F0003FC
FE0001FC
ENDCHAR
STARTCHAR Acircumflex
ENCODING 194
SWIDTH 722 0
DWIDTH 32 0
BBX 30 41 1 0
BITMAP
000FC000
001FE000
001FF000
003FF000
007CF800
00F87C00
00F83E00
00000000
00000000
001FE000
001FE000
001FF000
003FF000
003FF000
007FF800
007FF800
007FFC00
00FFFC00
00FCFC00
00FCFE00
01FCFE00
01F87E00
01F87F00
03F87F00
03F03F00
03F03F80
07F03F80
07F01F80
07E01FC0
0FFFFFC0
0FFFFFC0
1FFFFFE0
1FFFFFE0
1FFFFFE0
3FFFFFF0
3F8007F0
3F8007F8
7F0003F8
7F0003F8
7F0003FC
FE0001FC
ENDCHAR
STARTCHAR Atilde
ENCODING 195
SWIDTH 722 0
DWIDTH 32 0
BBX 30 40 1 0
BITMAP
00380000
007E0E00
00FF8E00
00FFFC00
01E7FC00
01C3F800
00000000
00000000
001FE000
001FE000
001FF000
003FF000
003FF000
007FF800
007FF800
007FFC00
00FFFC00
00FCFC00
00FCFE00
01FCFE00
01F87E00
01F87F00
03F87F00
03F03F00
03F03F80
07F03F80
07F01F80
07E01FC0
0FFFFFC0
0FFFFFC0
1FFFFFE0
1FFFFFE0
1FFFFFE0
3FFFFFF0
3F8007F0
3F8007F8
7F0003F8
7F0003F8
7F0003FC
FE0001FC
ENDCHAR
STARTCHAR Adieresis
ENCODING 196
SWIDTH 722 0
DWIDTH 32 0
BBX 31 41 1 0
BITMAP
00FC7E00
00FC7E00
00FC7E00
00FC7E00
00FC7E00
00FC7E00
00000000
00000000
00000000
001FF000
001FF000
001FF000
003FF800
003FF800
003FF800
007FFC00
007EFC00
007EFC00
00FEFE00
00FC7E00
00FC7F00
01FC7F00
01F83F00
03F83F80
03F83F80
03F03F80
07F01FC0
07F01FC0
07E01FC0
0FFFFFE0
0FFFFFE0
0FFFFFE0
1FFFFFF0
1FFFFFF0
1FFFFFF0
3F8003F8
3F8003F8
7F0003FC
7F0001FC
7F0001FC
FE0001FE
ENDCHAR
STARTCHAR Aring
ENCODING 197
SWIDTH 722 0
DWIDTH 32 0
BBX 29 42 2 0
BITMAP
000F0000
001FC000
0038C000
00306000
00306000
00306000
0038E000
001FC000
000F8000
00000000
003FC000
003FC000
003FE000
007FE000
007FE000
007FF000
00FFF000
00FFF800
00FDF800
01FDF800
01F9FC00
01F9FC00
03F8FC00
03F0FE00
03F0FE00
07F07E00
07E07F00
0FE07F00
0FE03F00
0FC03F80
1FFFFF80
1FFFFF80
1FFFFFC0
3FFFFFC0
3FFFFFE0
3FFFFFE0
7F000FE0
7F000FF0
7F0007F0
FE0007F0
FE0007F8
FC0003F8
ENDCHAR
STARTCHAR AE
ENCODING 198
SWIDTH 1000 0
DWIDTH 44 0
BBX 41 32 1 0
BITMAP
001FFFFFFF00
003FFFFFFF00
003FFFFFFF00
003FFFFFFF00
007FFFFFFF00
007FFFFFFF00
007E3F000000
00FE3F000000
00FC3F000000
01FC3F000000
01F83F000000
01F83F000000
03F83FFFFE00
03F03FFFFE00
03F03FFFFE00
07F03FFFFE00
07E03FFFFE00
07E03FFFFE00
0FC03F000000
0FFFFF000000
1FFFFF000000
1FFFFF000000
1FFFFF000000
3FFFFF000000
3FFFFF000000
3F003F000000
7F003FFFFF80
7F003FFFFF80
7E003FFFFF80
FE003FFFFF80
FE003FFFFF80
FC003FFFFF80
ENDCHAR
STARTCHAR Ccedilla
ENCODING 199
SWIDTH 722 0
DWIDTH 32 0
BBX 28 42 2 -10
BITMAP
003FE000
00FFFC00
03FFFF00
07FFFF80
0FFFFFC0
1FFFFFC0
3FF03FE0
3FC00FF0
7F8007F0
7F0007F0
7E0003F0
FE000000
FC000000
FC000000
FC000000
FC000000
FC000000
FC000000
FC000000
FC000000
FE000000
7E0003F0
7F0007F0
7F0007F0
3FC00FE0
3FF03FE0
1FFFFFC0
0FFFFFC0
07FFFF80
03FFFE00
01FFFC00
003FE000
00060000
000E0000
001FE000
001FF000
0001F000
0000F000
0000F000
0031E000
007FE000
001F8000
ENDCHAR
STARTCHAR Egrave
ENCODING 200
SWIDTH 666 0
DWIDTH 29 0
BBX 24 41 4 0
BITMAP
0FE000
07F000
03F000
01F800
00FC00
007C00
003E00
000000
000000
FFFFFE
FFFFFE
FFFFFE
FFFFFE
FFFFFE
FFFFFE
FC0000
FC0000
FC0000
FC0000
FC0000
FC0000
FFFFF8
FFFFF8
FFFFF8
FFFFF8
FFFFF8
FFFFF8
FC0000
FC0000
FC0000
FC0000
FC0000
FC0000
FC0000
FC0000
FFFFFF
FFFFFF
FFFFFF
FFFFFF
FFFFFF
FFFFFF
ENDCHAR
STARTCHAR Eacute
ENCODING 201
SWIDTH 666 0
DWIDTH 29 0
BBX 24 41 4 0
BITMAP
000FE0
001FC0
003F00
003E00
007C00
007800
00F000
000000
000000
FFFFFE
FFFFFE
FFFFFE
FFFFFE
FFFFFE
FFFFFE
FC0000
FC0000
FC0000
FC0000
FC0000
FC0000
FFFFF8
FFFFF8
FFFFF8
FFFFF8
FFFFF8
FFFFF8
FC0000
FC0000
FC0000
FC0000
FC0000
FC0000
FC0000
FC0000
FFFFFF
FFFFFF
FFFFFF
FFFFFF
FFFFFF
FFFFFF
ENDCHAR
STARTCHAR Ecircumflex
ENCODING 202
SWIDTH 666 0
DWIDTH 29 0
BBX 24 41 4 0
BITMAP
007C00
00FE00
01FF00
03EF80
07CF80
07C7C0
0F83E0
000000
000000
FFFFFE
FFFFFE
FFFFFE
FFFFFE
FFFFFE
FFFFFE
FC0000
FC0000
FC0000
FC0000
FC0000
FC0000
FFFFF8
FFFFF8
FFFFF8
FFFFF8
FFFFF8
FFFFF8
FC0000
FC0000
FC0000
FC0000
FC0000
FC0000
FC0000
FC0000
FFFFFF
FFFFFF
FFFFFF
FFFFFF
FFFFFF
FFFFFF
ENDCHAR
STARTCHAR Edieresis
ENCODING 203
SWIDTH 666 0
DWIDTH 29 0
BBX 24 41 4 0
BITMAP
0FC7E0
0FC7E0
0FC7E0
0FC7E0
0FC7E0
0FC7E0
000000
000000
000000
FFFFFE
FFFFFE
FFFFFE
FFFFFE
FFFFFE
FFFFFE
FC0000
FC0000
FC0000
FC0000
FC0000
FC0000
FFFFF8
FFFFF8
FFFFF8
FFFFF8
FFFFF8
FFFFF8
FC0000
FC0000
FC0000
FC0000
FC0000
FC0000
FC0000
FC0000
FFFFFF
FFFFFF
FFFFFF
FFFFFF
FFFFFF
FFFFFF
ENDCHAR
STARTCHAR Igrave
ENCODING 204
SWIDTH 277 0
DWIDTH 12 0
BBX 10 41 -1 0
BITMAP
FE00
3F00
1F00
0F80
07C0
03C0
0000
0000
0000
0FC0
0FC0
0FC0
0FC0
0FC0
0FC0
0FC0
0FC0
0FC0
0FC0
0FC0
0FC0
0FC0
0FC0
0FC0
0FC0
0FC0
0FC0
0FC0
0FC0
0FC0
0FC0
0FC0
0FC0
0FC0
0FC0
0FC0
0FC0
0FC0
0FC0
0FC0
0FC0
ENDCHAR
STARTCHAR Iacute
ENCODING 205
SWIDTH 277 0
DWIDTH 12 0
BBX 10 41 3 0
BITMAP
1FC0
3F80
3F00
7C00
F800
F000
0000
0000
0000
FC00
FC00
FC00
FC00
FC00
FC00
FC00
FC00
FC00
FC00
FC00
FC00
FC00
FC00
FC00
FC00
FC00
FC00
FC00
FC00
FC00
FC00
FC00
FC00
FC00
FC00
FC00
FC00
FC00
FC00
FC00
FC00
ENDCHAR
STARTCHAR Icircumflex
ENCODING 206
SWIDTH 277 0
DWIDTH 12 0
BBX 14 41 -1 0
BITMAP
0FC0
1FE0
3FF0
3CF8
7CF8
F87C
0000
0000
0000
0FC0
0FC0
0FC0
0FC0
0FC0
0FC0
0FC0
0FC0
0FC0
0FC0
0FC0
0FC0
0FC0
0FC0
0FC0
0FC0
0FC0
0FC0
0FC0
0FC0
0FC0
0FC0
0FC0
0FC0
0FC0
0FC0
0FC0
0FC0
0FC0
0FC0
0FC0
0FC0
ENDCHAR
STARTCHAR Idieresis
ENCODING 207
SWIDTH 277 0
DWIDTH 12 0
BBX 14 41 -1 0
BITMAP
FCFC
FCFC
FCFC
FCFC
FCFC
FCFC
0000
0000
0000
0FC0
0FC0
0FC0
0FC0
0FC0
0FC0
0FC0
0FC0
0FC0
0FC0
0FC0
0FC0
0FC0
0FC0
0FC0
0FC0
0FC0
0FC0
0FC0
0FC0
0FC0
0FC0
0FC0
0FC0
0FC0
0FC0
0FC0
0FC0
0FC0
0FC0
0FC0
0FC0
ENDCHAR
STARTCHAR Eth
ENCODING 208
SWIDTH 722 0
DWIDTH 32 0
BBX 29 32 0 0
BITMAP
1FFFF000
1FFFFE00
1FFFFF00
1FFFFF80
1FFFFFC0
1FFFFFE0
1F803FE0
1F800FF0
1F8007F0
1F8003F0
1F8003F8
1F8003F8
FFFF01F8
FFFF01F8
FFFF01F8
FFFF01F8
FFFF01F8
FFFF01F8
1F8001F8
1F8001F8
1F8003F8
1F8003F0
1F8007F0
1F8007F0
1F800FE0
1F803FE0
1FFFFFC0
1FFFFFC0
1FFFFF80
1FFFFF00
1FFFFC00
1FFFF000
ENDCHAR
STARTCHAR Ntilde
ENCODING 209
SWIDTH 722 0
DWIDTH 32 0
BBX 26 40 3 0
BITMAP
00E00000
01F81C00
03FE3800
03FFF800
079FF000
0707E000
00000000
00000000
FE000FC0
FF000FC0
FF000FC0
FF800FC0
FF800FC0
FFC00FC0
FFE00FC0
FFE00FC0
FFF00FC0
FFF00FC0
FDF80FC0
FDFC0FC0
FCFC0FC0
FC7E0FC0
FC7E0FC0
FC3F0FC0
FC3F8FC0
FC1F8FC0
FC1FCFC0
FC0FCFC0
FC07EFC0
FC07FFC0
FC03FFC0
FC03FFC0
FC01FFC0
FC00FFC0
FC00FFC0
FC007FC0
FC007FC0
FC003FC0
FC001FC0
FC001FC0
ENDCHAR
STARTCHAR Ograve
ENCODING 210
SWIDTH 777 0
DWIDTH 34 0
BBX 30 42 2 0
BITMAP
01FE0000
007E0000
003F0000
001F8000
000F8000
0007C000
0003E000
00000000
00000000
001FE000
00FFFC00
03FFFF00
07FFFF80
0FFFFFC0
1FFFFFE0
3FF03FF0
3FC00FF0
7F8007F8
7F0003F8
7E0001F8
FE0001FC
FC0001FC
FC0000FC
FC0000FC
FC0000FC
FC0000FC
FC0000FC
FC0000FC
FC0000FC
FC0001FC
FE0001FC
7E0001F8
7F0003F8
7F8007F8
3FC00FF0
3FF03FF0
1FFFFFE0
0FFFFFC0
07FFFF80
03FFFF00
00FFFC00
003FF000
ENDCHAR
STARTCHAR Oacute
ENCODING 211
SWIDTH 777 0
DWIDTH 34 0
BBX 30 42 2 0
BITMAP
0001FE00
0001FC00
0003F800
0007E000
0007C000
000F8000
001F0000
00000000
00000000
001FE000
00FFFC00
03FFFF00
07FFFF80
0FFFFFC0
1FFFFFE0
3FF03FF0
3FC00FF0
7F8007F8
7F0003F8
7E0001F8
FE0001FC
FC0001FC
FC0000FC
FC0000FC
FC0000FC
FC0000FC
FC0000FC
FC0000FC
FC0000FC
FC0001FC
FE0001FC
7E0001F8
7F0003F8
7F8007F8
3FC00FF0
3FF03FF0
1FFFFFE0
0FFFFFC0
07FFFF80
03FFFF00
00FFFC00
003FF000
ENDCHAR
STARTCHAR Ocircumflex
ENCODING 212
SWIDTH 777 0
DWIDTH 34 0
BBX 30 42 2 0
BITMAP
000FC000
001FE000
003FF000
003FF000
007CF800
00F87C00
01F03E00
00000000
00000000
001FE000
00FFFC00
03FFFF00
07FFFF80
0FFFFFC0
1FFFFFE0
3FF03FF0
3FC00FF0
7F8007F8
7F0003F8
7E0001F8
FE0001FC
FC0001FC
FC0000FC
FC0000FC
FC0000FC
FC0000FC
FC0000FC
FC0000FC
FC0000FC
FC0001FC
FE0001FC
7E0001F8
7F0003F8
7F8007F8
3FC00FF0
3FF03FF0
1FFFFFE0
0FFFFFC0
07FFFF80
03FFFF00
00FFFC00
003FF000
ENDCHAR
STARTCHAR Otilde
ENCODING 213
SWIDTH 777 0
DWIDTH 34 0
BBX 30 41 2 0
BITMAP
00380000
00FE0E00
00FF8E00
01FFFE00
01E7FC00
01C1F800
00000000
00000000
001FE000
00FFFC00
03FFFF00
07FFFF80
0FFFFFC0
1FFFFFE0
3FF03FF0
3FC00FF0
7F8007F8
7F0003F8
7E0001F8
FE0001FC
FC0001FC
FC0000FC
FC0000FC
FC0000FC
FC0000FC
FC0000FC
FC0000FC
FC0000FC
FC0001FC
FE0001FC
7E0001F8
7F0003F8
7F8007F8
3FC00FF0
3FF03FF0
1FFFFFE0
0FFFFFC0
07FFFF80
03FFFF00
00FFFC00
003FF000
ENDCHAR
STARTCHAR Odieresis
ENCODING 214
SWIDTH 777 0
DWIDTH 34 0
BBX 30 42 2 0
BITMAP
00FC7E00
00FC7E00
00FC7E00
00FC7E00
00FC7E00
00FC7E00
00000000
00000000
00000000
001FF000
00FFFE00
03FFFF00
07FFFF80
0FFFFFC0
1FFFFFE0
3FF01FF0
3FC00FF0
7F8007F8
7F0003F8
7E0001F8
FE0001FC
FC0000FC
FC0000FC
FC0000FC
FC0000FC
FC0000FC
FC0000FC
FC0000FC
FC0000FC
FC0000FC
7E0001FC
7E0001F8
7F0003F8
7F8007F8
3FC00FF0
3FF01FF0
1FFFFFE0
0FFFFFC0
07FFFF80
03FFFF00
00FFFE00
001FF000
ENDCHAR
STARTCHAR multiply
ENCODING 215
SWIDTH 583 0
DWIDTH 26 0
BBX 22 23 2 0
BITMAP
100020
380070
7C00F8
FE01FC
FF03FC
7F87F8
3FCFF0
1FFFE0
0FFFC0
07FF80
03FF00
01FE00
03FF00
07FF80
0FFFC0
1FFFE0
3FCFF0
7F87F8
FF03FC
7E01FC
3C00F8
180070
000020
ENDCHAR
STARTCHAR Oslash
ENCODING 216
SWIDTH 777 0
DWIDTH 34 0
BBX 31 33 1 0
BITMAP
000FF004
007FFE0E
01FFFF8E
03FFFFDC
07FFFFF8
0FFFFFF8
0FF81FF0
1FC007F8
1F8003FC
3F8007FC
3F000FFC
3F001EFE
7E003C7E
7E00787E
7E00F07E
7E01E07E
7E03C07E
7E07807E
7E0F007E
7E1E007E
7E3C00FE
3F7800FC
3FF000FC
3FE001FC
1FC003F8
1FE007F8
0FF81FF0
0FFFFFF0
1FFFFFE0
3BFFFFC0
71FFFF80
F07FFE00
600FF000
ENDCHAR
STARTCHAR Ugrave
ENCODING 217
SWIDTH 722 0
DWIDTH 32 0
BBX 25 41 3 0
BITMAP
07F00000
03F80000
01F80000
00FC0000
007E0000
003F0000
001F0000
00000000
00000000
FC001F80
FC001F80
FC001F80
FC001F80
FC001F80
FC001F80
FC001F80
FC001F80
FC001F80
FC001F80
FC001F80
FC001F80
FC001F80
FC001F80
FC001F80
FC001F80
FC001F80
FC001F80
FC001F80
FC001F80
FC001F80
FC001F80
FC001F80
FE003F80
7F007F00
7F80FF00
7FFFFF00
3FFFFE00
1FFFFC00
0FFFF800
07FFF000
00FF8000
ENDCHAR
STARTCHAR Uacute
ENCODING 218
SWIDTH 722 0
DWIDTH 32 0
BBX 25 41 3 0
BITMAP
0007F000
000FE000
000FC000
001F8000
003F0000
007E0000
007C0000
00000000
00000000
FC001F80
FC001F80
FC001F80
FC001F80
FC001F80
FC001F80
FC001F80
FC001F80
FC001F80
FC001F80
FC001F80
FC001F80
FC001F80
FC001F80
FC001F80
FC001F80
FC001F80
FC001F80
FC001F80
FC001F80
FC001F80
FC001F80
FC001F80
FE003F80
7F007F00
7F80FF00
7FFFFF00
3FFFFE00
1FFFFC00
0FFFF800
07FFF000
00FF8000
ENDCHAR
STARTCHAR Ucircumflex
ENCODING 219
SWIDTH 722 0
DWIDTH 32 0
BBX 25 41 3 0
BITMAP
007F0000
007F0000
00FF8000
01F7C000
03E3E000
07E3F000
07C1F000
00000000
00000000
FC001F80
FC001F80
FC001F80
FC001F80
FC001F80
FC001F80
FC001F80
FC001F80
FC001F80
FC001F80
FC001F80
FC001F80
FC001F80
FC001F80
FC001F80
FC001F80
FC001F80
FC001F80
FC001F80
FC001F80
FC001F80
FC001F80
FC001F80
FE003F80
7F007F00
7F80FF00
7FFFFF00
3FFFFE00
1FFFFC00
0FFFF800
07FFF000
00FF8000
ENDCHAR
STARTCHAR Udieresis
ENCODING 220
SWIDTH 722 0
DWIDTH 32 0
BBX 25 41 3 0
BITMAP
07E3F000
07E3F000
07E3F000
07E3F000
07E3F000
07E3F000
00000000
00000000
00000000
FC001F80
FC001F80
FC001F80
FC001F80
FC001F80
FC001F80
FC001F80
FC001F80
FC001F80
FC001F80
FC001F80
FC001F80
FC001F80
FC001F80
FC001F80
FC001F80
FC001F80
FC001F80
FC001F80
FC001F80
FC001F80
FC001F80
FC001F80
FE003F80
7F007F00
7F80FF00
7FFFFF00
3FFFFE00
1FFFFC00
0FFFF800
07FFF000
00FF8000
ENDCHAR
STARTCHAR Yacute
ENCODING 221
SWIDTH 666 0
DWIDTH 29 0
BBX 27 41 1 0
BITMAP
0003F800
0003F000
0007E000
000FC000
000F8000
001F0000
003E0000
00000000
00000000
FF000FE0
7F801FE0
7F801FC0
3F801FC0
1FC03F80
1FC03F80
0FE07F00
0FE07F00
07F0FE00
07F0FE00
03F8FC00
03F9FC00
01F9F800
01FFF000
00FFF000
007FE000
007FE000
003FC000
003FC000
001F8000
001F8000
001F8000
001F8000
001F8000
001F8000
001F8000
001F8000
001F8000
001F8000
001F8000
001F8000
001F8000
ENDCHAR
STARTCHAR Thorn
ENCODING 222
SWIDTH 666 0
DWIDTH 29 0
BBX 23 32 3 0
BITMAP
FC0000
FC0000
FC0000
FC0000
FFFF00
FFFFE0
FFFFF0
FFFFF8
FFFFFC
FFFFFC
FC01FC
FC00FE
FC007E
FC007E
FC007E
FC007E
FC007E
FC00FE
FC03FC
FFFFFC
FFFFFC
FFFFF8
FFFFF0
FFFFC0
FFFF00
FC0000
FC0000
FC0000
FC0000
FC0000
FC0000
FC0000
ENDCHAR
STARTCHAR germandbls
ENCODING 223
SWIDTH 610 0
DWIDTH 27 0
BBX 22 32 3 0
BITMAP
03FC00
0FFF00
3FFF80
7FFFC0
7FFFE0
7FFFE0
FF0FF0
FE07F0
FC03F0
FC03F0
FC03F0
FC03F0
FC07E0
FC7FC0
FC7F80
FC7FE0
FC7FF0
FC07F8
FC01F8
FC00FC
FC00FC
FC00FC
FC00FC
FC00FC
FC01FC
FC07F8
FC7FF8
FC7FF0
FC7FF0
FC7FE0
FC7FC0
FC7E00
ENDCHAR
STARTCHAR agrave
ENCODING 224
SWIDTH 556 0
DWIDTH 24 0
BBX 22 33 1 0
BITMAP
0FE000
07F000
03F800
01F800
00FC00
003E00
000000
000000
000000
01FE00
0FFFC0
1FFFE0
3FFFF0
3FFFF0
7FFFF8
7F03F8
7E01F8
0001F8
0007F8
03FFF8
1FFFF8
3FFFF8
7FF9F8
7F01F8
FE01F8
FC01F8
FC03F8
FC03F8
FE0FF8
7FFFF8
7FFFF8
3FF9FC
0FE0FC
ENDCHAR
STARTCHAR aacute
ENCODING 225
SWIDTH 556 0
DWIDTH 24 0
BBX 22 33 1 0
BITMAP
000FC0
001F80
003F00
007E00
007C00
00F800
000000
000000
000000
01FE00
0FFFC0
1FFFE0
3FFFF0
3FFFF0
7FFFF8
7F03F8
7E01F8
0001F8
0007F8
03FFF8
1FFFF8
3FFFF8
7FF9F8
7F01F8
FE01F8
FC01F8
FC03F8
FC03F8
FE0FF8
7FFFF8
7FFFF8
3FF9FC
0FE0FC
ENDCHAR
STARTCHAR acircumflex
ENCODING 226
SWIDTH 556 0
DWIDTH 24 0
BBX 22 33 1 0
BITMAP
00FE00
01FE00
03FF00
03EF80
07C7C0
0F83E0
000000
000000
000000
01FE00
0FFFC0
1FFFE0
3FFFF0
3FFFF0
7FFFF8
7F03F8
7E01F8
0001F8
0007F8
03FFF8
1FFFF8
3FFFF8
7FF9F8
7F01F8
FE01F8
FC01F8
FC03F8
FC03F8
FE0FF8
7FFFF8
7FFFF8
3FF9FC
0FE0FC
ENDCHAR
STARTCHAR atilde
ENCODING 227
SWIDTH 556 0
DWIDTH 24 0
BBX 22 32 1 0
BITMAP
038060
07E0E0
0FF8E0
0FFFC0
1E7FC0
1C1F80
000000
000000
01FE00
0FFFC0
1FFFE0
3FFFF0
3FFFF0
7FFFF8
7F03F8
7E01F8
0001F8
0007F8
03FFF8
0FFFF8
3FFFF8
7FF9F8
7F01F8
FE01F8
FC01F8
FC01F8
FC03F8
FE0FF8
FFFFF8
7FFFF8
3FF9F8
0FE0FC
ENDCHAR
STARTCHAR adieresis
ENCODING 228
SWIDTH 556 0
DWIDTH 24 0
BBX 22 32 1 0
BITMAP
0FC7E0
0FC7E0
0FC7E0
0FC7E0
0FC7E0
0FC7E0
000000
000000
01FE00
0FFFC0
1FFFE0
3FFFF0
3FFFF8
7FFFF8
7F03F8
7E01F8
0001F8
0007F8
03FFF8
1FFFF8
3FFFF8
7FF1F8
7F01F8
FE01F8
FC01F8
FC03F8
FC03F8
FE0FF8
7FFFF8
7FFDF8
3FF9FC
0FE0FC
ENDCHAR
STARTCHAR aring
ENCODING 229
SWIDTH 556 0
DWIDTH 24 0
BBX 22 36 1 0
BITMAP
003800
00FE00
00C600
018300
018300
018300
018300
00C600
00FE00
003800
000000
000000
01FE00
07FFC0
0FFFE0
1FFFF0
3FFFF0
3FFFF8
7F03F8
7E01F8
0001F8
0007F8
03FFF8
0FFFF8
3FFFF8
7FF9F8
7F01F8
FE01F8
FC01F8
FC01F8
FC03F8
FE0FF8
7FFFF8
7FFFF8
3FF9F8
0FE1FC
ENDCHAR
STARTCHAR ae
ENCODING 230
SWIDTH 889 0
DWIDTH 39 0
BBX 37 24 1 0
BITMAP
01FE01FC00
0FFF87FF00
1FFFCFFFC0
3FFFFFFFE0
3FFFFFFFE0
7FFFFFFFF0
7F03FE07F0
7E01FC03F0
0001F801F8
0007FFFFF8
01FFFFFFF8
0FFFFFFFF8
3FFFFFFFF8
7FF9F80000
7F81F80000
FE01F80000
FC01FC0000
FC03FE03F8
FC03FFFFF0
FE0FFFFFF0
7FFFBFFFE0
7FFF1FFFC0
3FFE0FFF80
0FF003FC00
ENDCHAR
STARTCHAR ccedilla
ENCODING 231
SWIDTH 556 0
DWIDTH 24 0
BBX 21 34 2 -10
BITMAP
01FE00
07FF80
1FFFE0
3FFFE0
3FFFF0
7FFFF8
7F03F8
7E01F8
FE0000
FC0000
FC0000
FC0000
FC0000
FC0000
FC0000
FE01F8
FE03F8
7F07F0
7FFFF0
3FFFE0
3FFFE0
1FFFC0
0FFF00
03FC00
00C000
00C000
01F800
01FC00
013E00
001E00
001E00
023E00
07FC00
01F000
ENDCHAR
STARTCHAR egrave
ENCODING 232
SWIDTH 556 0
DWIDTH 24 0
BBX 22 33 1 0
BITMAP
07E000
03F000
01F800
00F800
007C00
003C00
000200
000000
000000
01FE00
07FF80
0FFFC0
1FFFE0
3FFFF0
7FFFF8
7F87F8
7E01F8
FE01FC
FC00FC
FFFFFC
FFFFFC
FFFFFC
FFFFFC
FC0000
FC0000
FE0000
7F81FC
7FFFF8
3FFFF8
3FFFF0
0FFFE0
07FFC0
00FE00
ENDCHAR
STARTCHAR eacute
ENCODING 233
SWIDTH 556 0
DWIDTH 24 0
BBX 22 33 1 0
BITMAP
000FC0
001F80
003F00
003E00
007C00
00F800
000000
000000
000000
01FE00
07FF80
0FFFC0
1FFFE0
3FFFF0
7FFFF8
7F87F8
7E01F8
FE01FC
FC00FC
FFFFFC
FFFFFC
FFFFFC
FFFFFC
FC0000
FC0000
FE0000
7F81FC
7FFFF8
3FFFF8
3FFFF0
0FFFE0
07FFC0
00FE00
ENDCHAR
STARTCHAR ecircumflex
ENCODING 234
SWIDTH 556 0
DWIDTH 24 0
BBX 22 33 1 0
BITMAP
00FE00
01FE00
01FF00
03EF80
07C7C0
0F87C0
000020
000000
000000
01FE00
07FF80
0FFFC0
1FFFE0
3FFFF0
7FFFF8
7F87F8
7E01F8
FE01FC
FC00FC
FFFFFC
FFFFFC
FFFFFC
FFFFFC
FC0000
FC0000
FE0000
7F81FC
7FFFF8
3FFFF8
3FFFF0
0FFFE0
07FFC0
00FE00
ENDCHAR
STARTCHAR edieresis
ENCODING 235
SWIDTH 556 0
DWIDTH 24 0
BBX 22 32 1 0
BITMAP
0FC7E0
0FC7E0
0FC7E0
0FC7E0
0FC7E0
0FC7E0
000000
000000
00FE00
07FF80
0FFFC0
1FFFE0
3FFFF0
7FFFF8
7F83F8
7E01FC
FE00FC
FC00FC
FFFFFC
FFFFFC
FFFFFC
FFFFFC
FC0000
FC0000
FE0000
7F81FC
7FFFFC
3FFFF8
1FFFF0
0FFFE0
07FFC0
00FE00
ENDCHAR
STARTCHAR igrave
ENCODING 236
SWIDTH 277 0
DWIDTH 12 0
BBX 10 33 -1 0
BITMAP
FE00
7F00
3F00
1F80
0FC0
07C0
0000
0000
0000
0FC0
0FC0
0FC0
0FC0
0FC0
0FC0
0FC0
0FC0
0FC0
0FC0
0FC0
0FC0
0FC0
0FC0
0FC0
0FC0
0FC0
0FC0
0FC0
0FC0
0FC0
0FC0
0FC0
0FC0
ENDCHAR
STARTCHAR iacute
ENCODING 237
SWIDTH 277 0
DWIDTH 12 0
BBX 10 33 3 0
BITMAP
1FC0
1F80
3F00
7E00
7C00
F800
0000
0000
0000
FC00
FC00
FC00
FC00
FC00
FC00
FC00
FC00
FC00
FC00
FC00
FC00
FC00
FC00
FC00
FC00
FC00
FC00
FC00
FC00
FC00
FC00
FC00
FC00
ENDCHAR
STARTCHAR icircumflex
ENCODING 238
SWIDTH 277 0
DWIDTH 12 0
BBX 14 33 -1 0
BITMAP
0FC0
1FE0
1FF0
3EF8
7CF8
F87C
0000
0000
0000
0FC0
0FC0
0FC0
0FC0
0FC0
0FC0
0FC0
0FC0
0FC0
0FC0
0FC0
0FC0
0FC0
0FC0
0FC0
0FC0
0FC0
0FC0
0FC0
0FC0
0FC0
0FC0
0FC0
0FC0
ENDCHAR
STARTCHAR idieresis
ENCODING 239
SWIDTH 277 0
DWIDTH 12 0
BBX 15 32 -1 0
BITMAP
FC7E
FC7E
FC7E
FC7E
FC7E
FC7E
0000
0000
0FC0
0FC0
0FC0
0FC0
0FC0
0FC0
0FC0
0FC0
0FC0
0FC0
0FC0
0FC0
0FC0
0FC0
0FC0
0FC0
0FC0
0FC0
0FC0
0FC0
0FC0
0FC0
0FC0
0FC0
ENDCHAR
STARTCHAR eth
ENCODING 240
SWIDTH 610 0
DWIDTH 27 0
BBX 23 32 2 0
BITMAP
00C100
07E780
0FFFC0
07FE00
03FE00
0FFF00
3F7F80
1C3FC0
001FE0
000FE0
01FFF0
07FFF8
1FFFF8
3FFFFC
7F83FC
7F00FC
7E00FE
FC007E
FC007E
FC007E
FC007E
FC007E
FC007E
FE00FE
7F01FC
7F83FC
3FFFF8
3FFFF8
1FFFF0
0FFFE0
07FFC0
00FE00
ENDCHAR
STARTCHAR ntilde
ENCODING 241
SWIDTH 610 0
DWIDTH 27 0
BBX 21 32 3 0
BITMAP
0380E0
0FC0C0
0FF1C0
1FFFC0
1CFF80
183F00
001000
000000
FC3F00
FCFFC0
FDFFE0
FDFFF0
FFFFF0
FFFFF8
FF87F8
FE03F8
FE01F8
FC01F8
FC01F8
FC01F8
FC01F8
FC01F8
FC01F8
FC01F8
FC01F8
FC01F8
FC01F8
FC01F8
FC01F8
FC01F8
FC01F8
FC01F8
ENDCHAR
STARTCHAR ograve
ENCODING 242
SWIDTH 610 0
DWIDTH 27 0
BBX 24 33 1 0
BITMAP
07F000
03F800
01F800
00FC00
007E00
003E00
000000
000000
000000
00FF00
07FFE0
0FFFF0
1FFFF8
3FFFFC
3FFFFC
7F81FE
7F00FE
FE007F
FC003F
FC003F
FC003F
FC003F
FC003F
FC003F
FE007F
7F00FE
7F81FE
3FFFFC
3FFFFC
1FFFF8
0FFFF0
07FFE0
00FF00
ENDCHAR
STARTCHAR oacute
ENCODING 243
SWIDTH 610 0
DWIDTH 27 0
BBX 24 33 1 0
BITMAP
000FE0
000FC0
001F80
003F00
007E00
007C00
000000
000000
000000
00FF00
07FFE0
0FFFF0
1FFFF8
3FFFFC
3FFFFC
7F81FE
7F00FE
FE007F
FC003F
FC003F
FC003F
FC003F
FC003F
FC003F
FE007F
7F00FE
7F81FE
3FFFFC
3FFFFC
1FFFF8
0FFFF0
07FFE0
00FF00
ENDCHAR
STARTCHAR ocircumflex
ENCODING 244
SWIDTH 610 0
DWIDTH 27 0
BBX 24 33 1 0
BITMAP
007E00
00FF00
01FF80
03E7C0
07E7E0
07C3E0
080010
000000
000000
00FF00
07FFE0
0FFFF0
1FFFF8
3FFFFC
3FFFFC
7F81FE
7F00FE
FE007F
FC003F
FC003F
FC003F
FC003F
FC003F
FC003F
FE007F
7F00FE
7F81FE
3FFFFC
3FFFFC
1FFFF8
0FFFF0
07FFE0
00FF00
ENDCHAR
STARTCHAR otilde
ENCODING 245
SWIDTH 610 0
DWIDTH 27 0
BBX 24 32 1 0
BITMAP
01C070
03F070
07FC70
0FFFE0
0E3FE0
0E0F80
000000
000000
00FF00
07FFE0
0FFFF0
1FFFF8
3FFFFC
3FFFFC
7F81FE
7F00FE
FE007F
FC003F
FC003F
FC003F
FC003F
FC003F
FC003F
FE007F
7F00FE
7F81FE
3FFFFC
3FFFFC
1FFFF8
0FFFF0
07FFE0
00FF00
ENDCHAR
STARTCHAR odieresis
ENCODING 246
SWIDTH 610 0
DWIDTH 27 0
BBX 24 32 1 0
BITMAP
07E7E0
07E7E0
07E7E0
07E7E0
07E7E0
07E7E0
000000
000000
00FF00
07FFE0
0FFFF0
1FFFF8
3FFFFC
3FFFFC
7F81FE
7F00FE
FE007F
FC003F
FC003F
FC003F
FC003F
FC003F
FC003F
FE007F
7F00FE
7F81FE
3FFFFC
3FFFFC
1FFFF8
0FFFF0
07FFE0
00FF00
ENDCHAR
STARTCHAR divide
ENCODING 247
SWIDTH 548 0
DWIDTH 24 0
BBX 23 23 2 0
BITMAP
00FC00
00FC00
00FC00
00FC00
00FC00
00FC00
000000
000000
FFFFFE
FFFFFE
FFFFFE
FFFFFE
FFFFFE
FFFFFE
000000
000000
000000
00FC00
00FC00
00FC00
00FC00
00FC00
00FC00
ENDCHAR
STARTCHAR oslash
ENCODING 248
SWIDTH 610 0
DWIDTH 27 0
BBX 24 25 1 -1
BITMAP
00FF03
03FFC3
0FFFF7
1FFFFE
3FFFFC
3FFFFC
7F81FE
7F00FE
FE01FF
FC03BF
FC0F3F
FC1C3F
FC383F
FC703F
FDE03F
FF807F
7F00FE
7F81FE
3FFFFC
3FFFFC
3FFFF8
6FFFF0
E3FFC0
C0FF00
C00000
ENDCHAR
STARTCHAR ugrave
ENCODING 249
SWIDTH 610 0
DWIDTH 27 0
BBX 21 33 3 0
BITMAP
0FC000
07E000
03F000
01F000
00F800
007C00
000000
000000
000000
FC01F8
FC01F8
FC01F8
FC01F8
FC01F8
FC01F8
FC01F8
FC01F8
FC01F8
FC01F8
FC01F8
FC01F8
FC01F8
FC01F8
FC01F8
FC03F8
FE03F8
FF0FF8
FFFFF8
7FFFF8
7FFFF8
3FFDF8
1FF9F8
07E1F8
ENDCHAR
STARTCHAR uacute
ENCODING 250
SWIDTH 610 0
DWIDTH 27 0
BBX 21 33 3 0
BITMAP
001F80
003F00
007E00
007C00
00F800
01F000
000000
000000
000000
FC01F8
FC01F8
FC01F8
FC01F8
FC01F8
FC01F8
FC01F8
FC01F8
FC01F8
FC01F8
FC01F8
FC01F8
FC01F8
FC01F8
FC01F8
FC03F8
FE03F8
FF0FF8
FFFFF8
7FFFF8
7FFFF8
3FFDF8
1FF9F8
07E1F8
ENDCHAR
STARTCHAR ucircumflex
ENCODING 251
SWIDTH 610 0
DWIDTH 27 0
BBX 21 33 3 0
BITMAP
01FC00
03FC00
03FE00
07DF00
0F8F80
1F07C0
000000
000000
000000
FC01F8
FC01F8
FC01F8
FC01F8
FC01F8
FC01F8
FC01F8
FC01F8
FC01F8
FC01F8
FC01F8
FC01F8
FC01F8
FC01F8
FC01F8
FC03F8
FE03F8
FF0FF8
FFFFF8
7FFFF8
7FFFF8
3FFDF8
1FF9F8
07E1F8
ENDCHAR
STARTCHAR udieresis
ENCODING 252
SWIDTH 610 0
DWIDTH 27 0
BBX 21 32 3 0
BITMAP
1F8FC0
1F8FC0
1F8FC0
1F8FC0
1F8FC0
1F8FC0
000000
000000
FC01F8
FC01F8
FC01F8
FC01F8
FC01F8
FC01F8
FC01F8
FC01F8
FC01F8
FC01F8
FC01F8
FC01F8
FC01F8
FC01F8
FC01F8
FC03F8
FE03F8
FF0FF8
FFFFF8
7FFFF8
7FFFF8
3FFDF8
1FF9F8
07E1F8
ENDCHAR
STARTCHAR yacute
ENCODING 253
SWIDTH 556 0
DWIDTH 24 0
BBX 23 42 0 -9
BITMAP
000FE0
000FC0
001F80
003F00
003E00
007C00
000000
000000
000000
FE007E
7E00FE
7F00FE
7F00FC
3F00FC
3F81FC
3F81F8
1F81F8
1FC3F8
1FC3F0
0FC3F0
0FE3E0
07E7E0
07E7E0
07E7C0
03FFC0
03FFC0
03FF80
01FF80
01FF80
00FF00
00FF00
00FF00
007E00
00FE00
00FE00
01FC00
1FFC00
1FF800
1FF800
1FF000
1FF000
1FC000
ENDCHAR
STARTCHAR thorn
ENCODING 254
SWIDTH 610 0
DWIDTH 27 0
BBX 22 39 3 -7
BITMAP
FC0000
FC0000
FC0000
FC0000
FC0000
FC0000
FC0000
FC0000
FC3F00
FCFFC0
FDFFE0
FFFFF0
FFFFF0
FFFFF8
FF87F8
FE01FC
FE01FC
FC00FC
FC00FC
FC00FC
FC00FC
FC00FC
FC00FC
FE01FC
FE01F8
FF87F8
FFFFF8
FFFFF0
FFFFF0
FDFFE0
FCFFC0
FC3F00
FC0000
FC0000
FC0000
FC0000
FC0000
FC0000
FC0000
ENDCHAR
STARTCHAR ydieresis
ENCODING 255
SWIDTH 556 0
DWIDTH 24 0
BBX 24 41 0 -9
BITMAP
07E3F0
07E3F0
07E3F0
07E3F0
07E3F0
07E3F0
000000
000000
FE003F
7F007F
7F007F
7F007E
3F807E
3F80FC
1F80FC
1FC0FC
1FC1F8
0FC1F8
0FE1F8
0FE3F0
07E3F0
07F3F0
03F7E0
03F7E0
03FFE0
01FFC0
01FFC0
00FFC0
00FF80
00FF80
007F00
007F00
007F00
00FE00
00FE00
0FFC00
0FFC00
0FFC00
0FF800
0FF000
0FC000
ENDCHAR
STARTCHAR OE
ENCODING 338
SWIDTH 1000 0
DWIDTH 44 0
BBX 40 32 2 0
BITMAP
007E000000
03FF9FFFFF
07FFFFFFFF
0FFFFFFFFF
1FFFFFFFFF
1FFFFFFFFF
3FE0FFFFFF
3F803F8000
7F001F8000
7F001F8000
7E001F8000
FE001F8000
FC001FFFFE
FC001FFFFE
FC001FFFFE
FC001FFFFE
FC001FFFFE
FC001FFFFE
FC001F8000
FC001F8000
FE001F8000
7E001F8000
7E001F8000
7F001F8000
3F803F8000
3FE0FF8000
1FFFFFFFFF
1FFFFFFFFF
0FFFFFFFFF
07FFFFFFFF
01FFFFFFFF
007F1FFFFF
ENDCHAR
STARTCHAR oe
ENCODING 339
SWIDTH 943 0
DWIDTH 42 0
BBX 39 24 1 0
BITMAP
00FE007F00
07FF81FFC0
0FFFE3FFF0
1FFFF7FFF8
3FFFFFFFF8
7FFFFFFFFC
7F83FF81FC
7E00FF007E
FE00FE007E
FC007FFFFE
FC007FFFFE
FC007FFFFE
FC007FFFFE
FC007E0000
FC007E0000
FE00FF0000
7E01FF00FE
7F83FFC1FC
3FFFFFFFFC
3FFFFFFFF8
1FFFEFFFF8
0FFFC7FFF0
07FF81FFC0
00FE007F00
ENDCHAR
STARTCHAR Ydieresis
ENCODING 376
SWIDTH 666 0
DWIDTH 29 0
BBX 28 41 1 0
BITMAP
03F1F800
03F1F800
03F1F800
03F1F800
03F1F800
03F1F800
00000000
00000000
00000000
FE000FF0
FF000FE0
7F001FE0
7F801FC0
3F803F80
3FC03F80
1FC07F00
0FE07F00
0FE0FE00
07F0FE00
07F1FC00
03F9FC00
01FBF800
01FFF800
00FFF000
00FFE000
007FE000
003FC000
003FC000
001F8000
001F8000
001F8000
001F8000
001F8000
001F8000
001F8000
001F8000
001F8000
001F8000
001F8000
001F8000
001F8000
ENDCHAR
STARTCHAR circumflex
ENCODING 710
SWIDTH 333 0
DWIDTH 15 0
BBX 15 6 -1 27
BITMAP
0FC0
1FE0
3FF0
7CF8
7C7C
F83E
ENDCHAR
STARTCHAR tilde
ENCODING 732
SWIDTH 333 0
DWIDTH 15 0
BBX 16 6 -2 26
BITMAP
1C07
3F07
7FCF
7FFE
F3FE
E1F8
ENDCHAR
STARTCHAR uni2000
ENCODING 8192
SWIDTH 479 0
DWIDTH 21 0
BBX 1 1 0 0
BITMAP
00
ENDCHAR
STARTCHAR uni2001
ENCODING 8193
SWIDTH 959 0
DWIDTH 42 0
BBX 1 1 0 0
BITMAP
00
ENDCHAR
STARTCHAR uni2002
ENCODING 8194
SWIDTH 479 0
DWIDTH 21 0
BBX 1 1 0 0
BITMAP
00
ENDCHAR
STARTCHAR uni2003
ENCODING 8195
SWIDTH 959 0
DWIDTH 42 0
BBX 1 1 0 0
BITMAP
00
ENDCHAR
STARTCHAR uni2004
ENCODING 8196
SWIDTH 319 0
DWIDTH 14 0
BBX 1 1 0 0
BITMAP
00
ENDCHAR
STARTCHAR uni2005
ENCODING 8197
SWIDTH 239 0
DWIDTH 11 0
BBX 1 1 0 0
BITMAP
00
ENDCHAR
STARTCHAR uni2006
ENCODING 8198
SWIDTH 159 0
DWIDTH 7 0
BBX 1 1 0 0
BITMAP
00
ENDCHAR
STARTCHAR uni2007
ENCODING 8199
SWIDTH 159 0
DWIDTH 7 0
BBX 1 1 0 0
BITMAP
00
ENDCHAR
STARTCHAR uni2008
ENCODING 8200
SWIDTH 119 0
DWIDTH 5 0
BBX 1 1 0 0
BITMAP
00
ENDCHAR
STARTCHAR uni2009
ENCODING 8201
SWIDTH 191 0
DWIDTH 8 0
BBX 1 1 0 0
BITMAP
00
ENDCHAR
STARTCHAR uni200A
ENCODING 8202
SWIDTH 53 0
DWIDTH 2 0
BBX 1 1 0 0
BITMAP
00
ENDCHAR
STARTCHAR uni2010
ENCODING 8208
SWIDTH 333 0
DWIDTH 15 0
BBX 12 6 1 9
BITMAP
FFF0
FFF0
FFF0
FFF0
FFF0
FFF0
ENDCHAR
STARTCHAR uni2011
ENCODING 8209
SWIDTH 333 0
DWIDTH 15 0
BBX 12 6 1 9
BITMAP
FFF0
FFF0
FFF0
FFF0
FFF0
FFF0
ENDCHAR
STARTCHAR figuredash
ENCODING 8210
SWIDTH 333 0
DWIDTH 15 0
BBX 12 6 1 9
BITMAP
FFF0
FFF0
FFF0
FFF0
FFF0
FFF0
ENDCHAR
STARTCHAR endash
ENCODING 8211
SWIDTH 556 0
DWIDTH 24 0
BBX 25 5 0 10
BITMAP
FFFFFF80
FFFFFF80
FFFFFF80
FFFFFF80
FFFFFF80
ENDCHAR
STARTCHAR emdash
ENCODING 8212
SWIDTH 1000 0
DWIDTH 44 0
BBX 34 5 5 10
BITMAP
FFFFFFFFC0
FFFFFFFFC0
FFFFFFFFC0
FFFFFFFFC0
FFFFFFFFC0
ENDCHAR
STARTCHAR quoteleft
ENCODING 8216
SWIDTH 277 0
DWIDTH 12 0
BBX 6 12 3 20
BITMAP
0C
1C
78
70
E0
E0
FC
FC
FC
FC
FC
FC
ENDCHAR
STARTCHAR quoteright
ENCODING 8217
SWIDTH 277 0
DWIDTH 12 0
BBX 6 12 3 20
BITMAP
FC
FC
FC
FC
FC
FC
1C
1C
18
78
F0
E0
ENDCHAR
STARTCHAR quotesinglbase
ENCODING 8218
SWIDTH 277 0
DWIDTH 12 0
BBX 6 13 3 -7
BITMAP
FC
FC
FC
FC
FC
FC
1C
1C
1C
1C
78
F0
C0
ENDCHAR
STARTCHAR quotedblleft
ENCODING 8220
SWIDTH 500 0
DWIDTH 22 0
BBX 16 12 3 20
BITMAP
0C01
1C07
780F
701C
E018
E038
FC3F
FC3F
FC3F
FC3F
FC3F
FC3F
ENDCHAR
STARTCHAR quotedblright
ENCODING 8221
SWIDTH 500 0
DWIDTH 22 0
BBX 16 13 3 19
BITMAP
FC3F
FC3F
FC3F
FC3F
FC3F
FC3F
0C03
1C03
1C07
380E
F03E
E038
0020
ENDCHAR
STARTCHAR quotedblbase
ENCODING 8222
SWIDTH 500 0
DWIDTH 22 0
BBX 16 13 3 -7
BITMAP
FC3F
FC3F
FC3F
FC3F
FC3F
FC3F
1C07
1C07
1C07
1C0E
781E
F03C
C030
ENDCHAR
STARTCHAR bullet
ENCODING 8226
SWIDTH 350 0
DWIDTH 15 0
BBX 10 9 3 11
BITMAP
3F00
7F80
FF80
FFC0
FFC0
FF80
7F80
7F00
1E00
ENDCHAR
STARTCHAR ellipsis
ENCODING 8230
SWIDTH 1000 0
DWIDTH 44 0
BBX 36 6 4 0
BITMAP
FE01F807F0
FE01F807F0
FE01F807F0
FE01F807F0
FE01F807F0
FE01F807F0
ENDCHAR
STARTCHAR uni202F
ENCODING 8239
SWIDTH 191 0
DWIDTH 8 0
BBX 1 1 0 0
BITMAP
00
ENDCHAR
STARTCHAR guilsinglleft
ENCODING 8249
SWIDTH 333 0
DWIDTH 15 0
BBX 7 17 4 4
BITMAP
02
06
0E
1E
3E
7E
F8
F0
E0
E0
F0
FC
7E
3E
1E
0E
02
ENDCHAR
STARTCHAR guilsinglright
ENCODING 8250
SWIDTH 333 0
DWIDTH 15 0
BBX 7 16 4 4
BITMAP
80
E0
F0
F8
FC
7E
3E
0E
1E
3E
7E
FC
F8
E0
C0
80
ENDCHAR
STARTCHAR uni205F
ENCODING 8287
SWIDTH 239 0
DWIDTH 11 0
BBX 1 1 0 0
BITMAP
00
ENDCHAR
STARTCHAR Euro
ENCODING 8364
SWIDTH 744 0
DWIDTH 33 0
BBX 29 33 2 -1
BITMAP
0003FC00
000FFF00
003FFF80
007FFFC0
007FFFE0
00FF9FF0
01FE07F0
01FC03F8
01F801F8
03F001F8
FFFFF8F8
FFFFF000
FFFFF000
FFFFF000
03E00000
03E00000
03E00000
03E00000
03E00000
FFFFE000
FFFFE000
FFFFE0F8
FFFFE1F8
03F801F8
01F803F0
01FC03F0
00FE07F0
00FFFFE0
007FFFC0
003FFFC0
001FFF80
000FFE00
0001F800
ENDCHAR
STARTCHAR trademark
ENCODING 8482
SWIDTH 1000 0
DWIDTH 44 0
BBX 35 16 4 16
BITMAP
FFFCFE0FE0
FFFCFE0FE0
FFFCFE0FE0
FFFCFE1FE0
07C0FF1FE0
07C0FF1DE0
07C0F73DE0
07C0F7BDE0
07C0F7B9E0
07C0F3F9E0
07C0F3F9E0
07C0F3F9E0
07C0F3F1E0
07C0F1F1E0
07C0F1F1E0
07C0F1E1E0
ENDCHAR
STARTCHAR uniFB01
ENCODING 64257
SWIDTH 610 0
DWIDTH 27 0
BBX 23 32 1 0
BITMAP
01F87E
07F87E
0FF87E
0FF87E
1FF87E
1FC07E
1F8000
1F8000
1F8000
FFF87E
FFF87E
FFF87E
FFF87E
1F807E
1F807E
1F807E
1F807E
1F807E
1F807E
1F807E
1F807E
1F807E
1F807E
1F807E
1F807E
1F807E
1F807E
1F807E
1F807E
1F807E
1F807E
1F807E
ENDCHAR
STARTCHAR uniFB02
ENCODING 64258
SWIDTH 610 0
DWIDTH 27 0
BBX 23 32 1 0
BITMAP
01F87E
07F87E
0FF87E
0FF87E
1FF87E
1FC07E
1F807E
1F807E
1F807E
FFF87E
FFF87E
FFF87E
FFF87E
1F807E
1F807E
1F807E
1F807E
1F807E
1F807E
1F807E
1F807E
1F807E
1F807E
1F807E
1F807E
1F807E
1F807E
1F807E
1F807E
1F807E
1F807E
1F807E
ENDCHAR
STARTCHAR .notdef
ENCODING -1
SWIDTH 365 0
DWIDTH 16 0
BBX 11 29 1 0
BITMAP
FFE0
8020
8020
8020
8020
8020
8020
8020
8020
8020
8020
8020
8020
8020
8020
8020
8020
8020
8020
8020
8020
8020
8020
8020
8020
8020
8020
8020
FFE0
ENDCHAR
STARTCHAR .null
ENCODING -1
SWIDTH 0 0
DWIDTH 0 0
BBX 1 1 0 0
BITMAP
00
ENDCHAR
STARTCHAR nonmarkingreturn
ENCODING -1
SWIDTH 333 0
DWIDTH 15 0
BBX 1 1 0 0
BITMAP
00
ENDCHAR
ENDFONT
